<?xml version="1.0" encoding="iso-8859-1"?>
<!-- Generator: Adobe Illustrator 19.0.0, SVG Export Plug-In . SVG Version: 6.00 Build 0)  -->
<svg version="1.1" xmlns="http://www.w3.org/2000/svg" xmlns:xlink="http://www.w3.org/1999/xlink" x="0px" y="0px"
	 viewBox="0 0 520 520" style="enable-background:new 0 0 520 520;" xml:space="preserve">
<g id="_x37_11_x2C__Estate_x2C__Heating_x2C__Real_x2C__Boundary">
	<g>
		<rect x="175" y="347.5" width="50" height="30"/>
		<path d="M235,337.5h50v-50h-50V337.5z M260,302.5c5.522,0,10,4.478,10,10s-4.478,10-10,10c-5.523,0-10-4.478-10-10
			S254.477,302.5,260,302.5z"/>
		<rect x="175" y="447.5" width="50" height="30"/>
		<polygon points="175,204.167 175,277.5 225,277.5 225,204.167 200,170.833 		"/>
		<path d="M175,437.5h50v-50h-50V437.5z M200,402.5c5.523,0,10,4.478,10,10s-4.477,10-10,10c-5.523,0-10-4.478-10-10
			S194.477,402.5,200,402.5z"/>
		<polygon points="235,204.167 235,277.5 285,277.5 285,204.167 260,170.833 		"/>
		<path d="M235,437.5h50v-50h-50V437.5z M260,402.5c5.522,0,10,4.478,10,10s-4.478,10-10,10c-5.523,0-10-4.478-10-10
			S254.477,402.5,260,402.5z"/>
		<polygon points="115,204.167 115,277.5 165,277.5 165,204.167 140,170.833 		"/>
		<rect x="235" y="347.5" width="50" height="30"/>
		<rect x="235" y="447.5" width="50" height="30"/>
		<path d="M175,337.5h50v-50h-50V337.5z M200,302.5c5.523,0,10,4.478,10,10s-4.477,10-10,10c-5.523,0-10-4.478-10-10
			S194.477,302.5,200,302.5z"/>
		<path d="M55,437.5h50v-50H55V437.5z M80,402.5c5.523,0,10,4.478,10,10s-4.477,10-10,10s-10-4.478-10-10S74.477,402.5,80,402.5z"/>
		<rect x="55" y="447.5" width="50" height="30"/>
		<rect x="55" y="347.5" width="50" height="30"/>
		<path d="M115,337.5h50v-50h-50V337.5z M140,302.5c5.523,0,10,4.478,10,10s-4.477,10-10,10s-10-4.478-10-10
			S134.477,302.5,140,302.5z"/>
		<rect x="115" y="347.5" width="50" height="30"/>
		<path d="M55,337.5h50v-50H55V337.5z M80,302.5c5.523,0,10,4.478,10,10s-4.477,10-10,10s-10-4.478-10-10S74.477,302.5,80,302.5z"/>
		<path d="M115,437.5h50v-50h-50V437.5z M140,402.5c5.523,0,10,4.478,10,10s-4.477,10-10,10s-10-4.478-10-10
			S134.477,402.5,140,402.5z"/>
		<rect x="115" y="447.5" width="50" height="30"/>
		<polygon points="55,204.167 55,277.5 105,277.5 105,204.167 80,170.833 		"/>
		<path d="M295,337.5h50v-50h-50V337.5z M320,302.5c5.522,0,10,4.478,10,10s-4.478,10-10,10c-5.523,0-10-4.478-10-10
			S314.477,302.5,320,302.5z"/>
		<path d="M415,337.5h50v-50h-50V337.5z M440,302.5c5.522,0,10,4.478,10,10s-4.478,10-10,10c-5.523,0-10-4.478-10-10
			S434.477,302.5,440,302.5z"/>
		<path d="M355,337.5h50v-50h-50V337.5z M380,302.5c5.522,0,10,4.478,10,10s-4.478,10-10,10c-5.523,0-10-4.478-10-10
			S374.477,302.5,380,302.5z"/>
		<rect x="295" y="447.5" width="50" height="30"/>
		<rect x="355" y="347.5" width="50" height="30"/>
		<path d="M355,437.5h50v-50h-50V437.5z M380,402.5c5.522,0,10,4.478,10,10s-4.478,10-10,10c-5.523,0-10-4.478-10-10
			S374.477,402.5,380,402.5z"/>
		<polygon points="355,204.167 355,277.5 405,277.5 405,204.167 380,170.833 		"/>
		<rect x="415" y="347.5" width="50" height="30"/>
		<path d="M415,437.5h50v-50h-50V437.5z M440,402.5c5.522,0,10,4.478,10,10s-4.478,10-10,10c-5.523,0-10-4.478-10-10
			S434.477,402.5,440,402.5z"/>
		<rect x="415" y="447.5" width="50" height="30"/>
		<polygon points="295,204.167 295,277.5 345,277.5 345,204.167 320,170.833 		"/>
		<rect x="355" y="447.5" width="50" height="30"/>
		<rect x="295" y="347.5" width="50" height="30"/>
		<polygon points="415,204.167 415,277.5 465,277.5 465,204.167 440,170.833 		"/>
		<path d="M295,437.5h50v-50h-50V437.5z M320,402.5c5.522,0,10,4.478,10,10s-4.478,10-10,10c-5.523,0-10-4.478-10-10
			S314.477,402.5,320,402.5z"/>
		<circle cx="380" cy="42.5" r="10"/>
		<circle cx="220" cy="122.5" r="10"/>
		<circle cx="50" cy="42.5" r="10"/>
		<circle cx="120" cy="122.5" r="10"/>
		<circle cx="270" cy="72.5" r="10"/>
		<path d="M180,77.5h60c2.761,0,5-2.239,5-5s-2.239-5-5-5h-55.356c-2.434-16.939-17.042-30-34.644-30s-32.21,13.061-34.644,30H90
			c-2.761,0-5,2.239-5,5s2.239,5,5,5h30c2.761,0,5-2.239,5-5c0-13.785,11.215-25,25-25s25,11.215,25,25
			C175,75.261,177.239,77.5,180,77.5z"/>
		<path d="M360,117.5h30c2.762,0,5-2.239,5-5s-2.238-5-5-5h-25.502c-2.323-11.397-12.425-20-24.498-20
			c-12.073,0-22.175,8.603-24.498,20H300c-2.762,0-5,2.239-5,5s2.238,5,5,5h20c2.762,0,5-2.239,5-5c0-8.271,6.728-15,15-15
			c8.271,0,15,6.729,15,15C355,115.261,357.238,117.5,360,117.5z"/>
		<path d="M75,107.5c0-11.028-8.972-20-20-20s-20,8.972-20,20s8.972,20,20,20S75,118.528,75,107.5z"/>
		<path d="M440,97.5c13.785,0,25-11.215,25-25s-11.215-25-25-25c-13.785,0-25,11.215-25,25S426.215,97.5,440,97.5z"/>
	</g>
</g>
<g id="Layer_1">
</g>
</svg>
