<?xml version="1.0" encoding="UTF-8" standalone="no"?> <svg width="64" height="64" viewBox="0 0 64 64" fill="none" xmlns="http://www.w3.org/2000/svg">
<path d="M61.15 38.9999L57.59 36.4199L59 34.5399C59.3109 34.1113 59.4392 33.5769 59.3567 33.0539C59.2742 32.5309 58.9877 32.062 58.56 31.7499L22.71 5.74988C22.4975 5.59438 22.2563 5.48239 22.0004 5.42033C21.7444 5.35828 21.4788 5.34738 21.2186 5.38826C20.9584 5.42914 20.7089 5.521 20.4844 5.65856C20.2598 5.79613 20.0646 5.97669 19.91 6.18988L6.91 24.1899C6.7498 24.3991 6.63252 24.6379 6.56489 24.8926C6.49727 25.1472 6.48063 25.4127 6.51595 25.6739C6.55126 25.935 6.63782 26.1866 6.77066 26.4141C6.90349 26.6417 7.07999 26.8407 7.29 26.9999L24.45 39.4399L16.88 49.8799H6V47.1499C6 46.6195 5.78929 46.1107 5.41421 45.7357C5.03914 45.3606 4.53043 45.1499 4 45.1499C3.46957 45.1499 2.96086 45.3606 2.58579 45.7357C2.21071 46.1107 2 46.6195 2 47.1499V56.6099C2 57.1403 2.21071 57.649 2.58579 58.0241C2.96086 58.3992 3.46957 58.6099 4 58.6099C4.53043 58.6099 5.03914 58.3992 5.41421 58.0241C5.78929 57.649 6 57.1403 6 56.6099V53.8799H17.9C18.2164 53.8796 18.5283 53.8042 18.8099 53.6599C19.0915 53.5156 19.3349 53.3065 19.52 53.0499L27.69 41.7799L43.14 52.9999C43.5686 53.3108 44.1029 53.4391 44.6259 53.3566C45.1489 53.2741 45.6179 52.9876 45.93 52.5599L47.31 50.6499L50.87 53.2299C51.2986 53.5408 51.8329 53.6691 52.3559 53.5866C52.8789 53.5041 53.3479 53.2176 53.66 52.7899L61.6 41.7899C61.9099 41.3601 62.0365 40.8249 61.9521 40.3018C61.8678 39.7787 61.5793 39.3105 61.15 38.9999V38.9999ZM51.6 48.7999L49.66 47.3899C51.05 45.4699 53.85 41.5999 55.25 39.6799L57.19 41.0899L51.6 48.7999Z" fill="black"/>
</svg>
