<svg xmlns="http://www.w3.org/2000/svg" viewBox="0 0 64 64"><g id="HOUSE-24" data-name="HOUSE"><rect x="38.55" y="20.75" width="2.42" height="5.5"/><rect x="34.67" y="20.75" width="2.42" height="5.5"/><rect x="42.42" y="20.75" width="2.42" height="5.5"/><rect x="26.91" y="20.75" width="2.42" height="5.5"/><rect x="19.15" y="20.75" width="2.42" height="5.5"/><rect x="30.79" y="20.75" width="2.42" height="5.5"/><rect x="23.03" y="20.75" width="2.42" height="5.5"/><path d="M49.45,16h4L40.14,5H23.86L10.52,16Z"/><path d="M58.18,31H25.94v3.25H58.18Z"/><path d="M48.48,18h-33V29h33ZM46.3,27a.74.74,0,0,1-.72.75H18.42A.74.74,0,0,1,17.7,27V20a.74.74,0,0,1,.72-.75H45.58a.74.74,0,0,1,.72.75Z"/><path d="M58.18,51V35.75h-8V51H48.73V35.75H47.27V51H45.82V35.75H36.61V51H35.15V35.75H25.94V51H24.48V31H6.79V51H0v2H64V51Z"/></g></svg>