<?xml version="1.0" encoding="utf-8"?>
<!-- Generator: Adobe Illustrator 23.0.2, SVG Export Plug-In . SVG Version: 6.00 Build 0)  -->
<svg version="1.1" id="Layer_1" xmlns="http://www.w3.org/2000/svg" xmlns:xlink="http://www.w3.org/1999/xlink" x="0px" y="0px"
	 viewBox="0 0 313.0386 230.1652" enable-background="new 0 0 313.0386 230.1652" xml:space="preserve">
<g>
	<g>
		<path d="M275.9874,44.6583c12.2393-2.1318,20.4317-13.7832,18.2989-26.0234C292.1516,6.3966,280.4992-1.7958,268.2609,0.338
			c-12.2383,2.1328-20.4307,13.7852-18.2979,26.0235C252.0988,38.6007,263.7492,46.7931,275.9874,44.6583z"/>
		<path d="M283.1535,46.6691c-8.6426,1.6455-13.0596,13.3271-10.752,23.4248c0.1631,1.1816,0.3408,2.4199,0.5234,3.6816
			c-4.1025,2.0049-10.8896,3.7256-21.5302,3.7178c-0.3682,0-0.7559-0.002-1.1533-0.0039c-3.2422-0.0156-6.0372,1.9023-7.3067,4.6689
			c-6.9551,1.5918-17.499,4.4463-24.3428,6.1856c-19.6152-5.0147-42.1626-8.9766-52.6064-4.7578
			c7.602,1.4892,23.729,5.4433,34.8906,8.1279c-11.3086,2.0449-27.9619,5.1387-35.7373,6.2061
			c10.271,4.8466,33.2964,2.0908,53.2808-1.8497c6.1328,1.9297,15.5234,5.0508,22.4311,7.1211
			c-0.1064-0.6152-0.1611-1.2461-0.1484-1.8925c0.043-2.2188,0.8301-4.2598,2.1074-5.9053
			c-2.5889-0.8477-5.5439-1.7803-8.7646-2.7471c3.6132-0.8691,6.8916-1.7099,9.6884-2.4648
			c0.6924,0.9531,1.584,1.7539,2.6231,2.3242c1.3183-0.6445,2.789-1.0166,4.3408-1.0166l0.1963,0.0019
			c0.4805,0.0088,0.9707,0.0127,1.4707,0.0127c6.2295,0,11.4531-0.8964,15.5234-2.664c2.6993-1.1836,4.7959-2.6592,6.5108-4.5938
			c0.249-0.2802,0.4892-0.5703,0.7226-0.8701c3.8311-4.8916,4.211-11.7881,4.1953-14.5264c0-0.2363-0.0058-0.457-0.0097-0.6816
			c-0.0518-2.6572-0.3906-4.4873-0.3955-4.5068c-0.5117-2.4932-0.0313-4.9619,1.1592-7.0117
			c1.3789-2.375,3.7109-4.1846,6.6035-4.7833c0.6728-0.1406,1.3623-0.2109,2.0449-0.2109c2.5478,0,4.916,0.9873,6.71,2.6192
			c1.5205,1.3828,2.6298,3.2275,3.0703,5.3437c0.1933,0.9629,0.8125,4.4102,0.8193,9.2188
			c-0.0176,7.1865-1.373,13.7646-4.0273,19.5615c-3.7422,8.2881-10.5596,14.9111-19.2041,18.6806
			c-0.0284,4.9473-0.3868,9.8448-1.2793,14.4952c-0.3956,3.4169-0.4473,6.0644-0.168,8.1259
			c-3.291,7.791-6.7774,19.9239-6.7656,36.2969c-0.0049,14.0274,2.5527,31.0606,9.7129,50.9033
			c1.8359,5.0938,6.6396,8.2647,11.7607,8.2647c1.4072,0,2.8379-0.2393,4.2383-0.7442c6.4941-2.3437,9.8603-9.5048,7.5205-15.999
			c-6.2559-17.3613-8.2276-31.4199-8.2315-42.4248c0.0039-11.4619,2.1426-19.6553,4.1055-24.8584
			c0.9248-2.4492,1.8154-4.2217,2.4365-5.3379c4.8535-2.0049,9.0674-6.251,11.2334-14.7988
			c3.8291-22.0361,3.1075-35.2285-2.5556-55.7539C303.8917,50.3478,291.7961,45.0236,283.1535,46.6691z M217.4254,92.4181
			c-0.0473-0.6894,0.752-1.3047,1.7857-1.375c1.0332-0.0703,1.9087,0.4307,1.9555,1.1191c0.0469,0.6895-0.7524,1.3047-1.7856,1.375
			C218.3478,93.6076,217.4723,93.1076,217.4254,92.4181z"/>
		<path d="M274.7179,86.7765c-1.5449,1.4561-3.4697,2.7744-6.0351,3.8984c-3.1182,1.3545-7.25,2.3838-12.6641,2.71
			c-1.1641,0.0703-2.3662,0.1191-3.6543,0.1191c-0.5039,0-1.002-0.0039-1.4922-0.0127c-0.0058,0-0.0117,0-0.0176,0
			c0,0-0.0029,0-0.0039,0c-2.375-0.0449-4.5215,0.9571-6.0166,2.5723c-1.2851,1.3897-2.0927,3.2315-2.1318,5.2725
			c-0.0156,0.873,0.1123,1.7138,0.3555,2.5049c0.9892,3.2138,3.9462,5.5791,7.4912,5.6474c0.623,0.0108,1.2285,0.0147,1.8154,0.0147
			c0.0059,0,0.0127,0,0.0195,0c8.9854,0,16.4825-1.4668,22.668-4.1514c0.3535-0.1514,0.6934-0.3145,1.0371-0.4736
			c8.7285-4.0479,14.3936-10.6924,17.3828-17.3125c3.1592-6.8975,3.833-13.668,3.8467-18.7256
			c-0.0059-4.5772-0.582-7.8096-0.7412-8.6348c-0.0156-0.0801-0.0283-0.1445-0.0352-0.1787
			c-0.9004-4.3262-5.1367-7.1045-9.4619-6.2031c-4.3203,0.8965-7.0947,5.124-6.206,9.4443h-0.001l0.0019,0.0147l0.001,0.0009
			v-0.0009h0.001c0,0.0009,0,0.0019,0.001,0.0019l-0.002-0.001c0.0606,0.3233,0.4434,2.545,0.4404,5.5567
			c0.0264,4.7734-1.0205,11.1728-4.6162,15.7617C276.1144,85.3566,275.4562,86.0812,274.7179,86.7765z"/>
	</g>
	<g>
		<path d="M70.7467,76.6085c-0.0078,0.0459,0.0479,0.1026,0.125,0.1631c0.1865-0.1435,0.4312-0.3066,0.6616-0.4658
			C71.1666,76.3888,70.7721,76.466,70.7467,76.6085z"/>
		<path d="M72.1603,76.0402c0.0469-0.2637,1.0356-0.3594,1.0825-0.6231c0.0391-0.2207-1.751-0.7646-2.3237-1.0937
			c-0.1211,0.1015-0.2036,0.1894-0.1851,0.2422c0.0884,0.25,1.3355,0.0879,1.4224,0.3379c0.0869,0.2509-0.1221,0.6005-0.0366,0.8515
			c0.0366,0.1065-0.2525,0.3213-0.5865,0.5508C71.8463,76.2355,72.1388,76.1622,72.1603,76.0402z"/>
		<path d="M72.4874,73.0978c-0.0898-0.25-2.3437,0.291-2.435,0.042c-0.0913-0.2481,1.4931-0.2373,1.3999-0.4854
			c-0.0469,0.2637-0.8516-0.4306-0.898-0.166c-0.0468,0.2637-1.8042,0.2285-1.8505,0.4932
			c-0.0464,0.2637,2.0849,0.9101,2.038,1.1738c-0.0078,0.044,0.0625,0.1025,0.1773,0.168
			C71.3776,73.9376,72.5587,73.2951,72.4874,73.0978z"/>
		<path d="M50.2765,95.1964c0.001-0.0097-0.0054-0.0205-0.0059-0.0312c-0.207,0.1826-0.3642,0.3457-0.2885,0.4179
			c0.0742,0.0694,0.2973-0.0214,0.5532-0.1464C50.3786,95.3468,50.2687,95.2648,50.2765,95.1964z"/>
		<path d="M70.5949,77.0988c0.0234,0.0693,0.3403,0.042,0.7812-0.0274c-0.207-0.1064-0.3887-0.209-0.5044-0.2998
			C70.694,76.9093,70.5714,77.0285,70.5949,77.0988z"/>
		<path d="M86.549,81.0236c-0.0879-0.1758-1.8521,0.4902-2.8169,0.7549c0.518,0.1933,1.1274,0.3945,1.1826,0.5488
			C85.7042,81.7726,86.6154,81.1574,86.549,81.0236z"/>
		<path d="M83.317,84.3507c0.001,0.002,0.0078,0.002,0.0093,0.0039c0.0064-0.0664,0.0137-0.1328,0.02-0.1992
			C83.3117,84.2316,83.2936,84.2999,83.317,84.3507z"/>
		<path d="M84.9147,82.3273c-0.0557,0.039-0.1094,0.0771-0.1636,0.1152c0.1113-0.0244,0.1802-0.0527,0.1831-0.0879
			C84.9352,82.3458,84.9182,82.3361,84.9147,82.3273z"/>
		<path d="M50.9152,94.4445c-0.0337,0.2343-1.294-0.4229-1.3301-0.1348c-0.0293,0.2354,0.665,0.5801,0.6855,0.8555
			C50.5924,94.881,51.0348,94.5509,50.9152,94.4445z"/>
		<path d="M83.1173,81.8546c0.0318,0.0616,0.2744,0.0176,0.6148-0.0761c-0.2808-0.1045-0.5225-0.2051-0.6304-0.294
			C83.0919,81.6759,83.0944,81.8107,83.1173,81.8546z"/>
		<path d="M83.3244,78.5656c-0.0176,0.2617-0.2676,2.5625-0.2886,2.8281c-0.0025,0.0283,0.0278,0.0586,0.0659,0.0908
			C83.1452,80.6535,83.4259,78.757,83.3244,78.5656z"/>
		<path d="M4.611,102.0167c-0.0996-0.248,0.0083-0.5781-0.0908-0.8261c-0.0997-0.2481-0.8257-1.4746-0.9244-1.7227
			c-0.0371,0.2617,0.7247,1.8047,0.6875,2.0703c-0.0371,0.2617-2.5595,0.1836-2.5957,0.4502
			c-0.0361,0.2617-0.6904,0.4483-0.726,0.7139c-0.0176,0.1299,1.0771,0.4072,2.1816,0.6865
			C3.3312,103.0519,4.7013,102.2404,4.611,102.0167z"/>
		<path d="M3.1432,103.3888c-0.02,0.0352-0.0395,0.0703-0.0303,0.0938c0.0996,0.247-0.559,0.8017-0.4594,1.0498
			c0.1001,0.248,1.5996-0.0674,1.6997,0.1797c0.0625,0.1552,0.6933,0.08,1.1821,0.0615c-0.0327-0.2266-0.1816-0.4629-0.1533-0.6807
			C5.3996,103.9581,4.2663,103.673,3.1432,103.3888z"/>
		<path d="M18.2755,83.6496c-0.0713-0.2793-0.9741-0.3379-1.0376-0.5772c-0.0761-0.2881-1.1372,0.4326-1.2016,0.208
			c-0.0127,0.2647-1.5869-0.1543-1.5987,0.1094c-0.0117,0.2646-0.936,0.499-0.9467,0.7637
			c-0.0059,0.1552,1.4296,0.3642,2.6191,0.5634C17.0304,84.3048,18.3156,83.8068,18.2755,83.6496z"/>
		<path d="M17.6652,85.1037c0.0039-0.1094-0.7149-0.2461-1.5552-0.3868c-0.5229,0.2344-0.9292,0.4405-0.9043,0.5401
			c0.0308,0.123,0.4341,0.1562,0.8423,0.1914C16.8532,85.3419,17.6603,85.2365,17.6652,85.1037z"/>
		<path d="M3.1608,228.341c0.2798,0.2851,1.1001-0.6211,1.499-0.6211c0.2466,0,0.3457-0.1914,0.4756-0.3428
			C4.2302,227.7492,2.9767,228.1544,3.1608,228.341z"/>
		<path d="M45.6574,115.049c0.2651,0.0009,0.6972,0.0439,1.1884,0.1015c0.0635-0.3447,0.1304-0.7578,0.1748-0.7617
			C46.9113,114.34,46.0954,114.8419,45.6574,115.049z"/>
		<path d="M47.0206,114.3888c0.0113,0.0049,0.0235,0.0088,0.0186,0.0264C47.0338,114.3956,47.0275,114.3878,47.0206,114.3888z"/>
		<path d="M5.4572,227.2033c-0.1519,0-0.2412,0.081-0.3218,0.1738c0.4907-0.2012,0.8809-0.3936,0.8809-0.5361
			c0-0.0489-0.0464-0.0909-0.1236-0.1289C5.7794,226.9425,5.6808,227.2033,5.4572,227.2033z"/>
		<path d="M84.7512,82.4425c-0.7197,0.1592-3.3515,0.1328-3.375,0.3623c-0.0264,0.2617,2.0347,0.7373,2.0049,1.003
			c-0.0127,0.1152-0.0244,0.2314-0.0347,0.3476c0.1294-0.2881,0.5552-0.707,0.4644-0.8965
			C83.7648,83.1632,84.2092,82.8273,84.7512,82.4425z"/>
		<path d="M45.6574,115.049c-0.1592,0-0.2637,0.0136-0.2735,0.0507C45.3659,115.1681,45.4826,115.131,45.6574,115.049z"/>
		<path d="M20.4044,91.4474c-0.0654-0.2646-2.3247,0.0205-2.3886-0.2373c-0.0655-0.2637-2.399,0.0352-2.4624-0.2227
			c-0.0655-0.2656,3.6303-1.4531,3.5673-1.7109c-0.0659-0.2656-2.894,0.1523-2.9565-0.1035
			c-0.0664-0.2686,2.126-1.084,2.0635-1.3408c-0.0664-0.2686-2.3858,0.0234-2.4483-0.2305
			c-0.0659-0.2686,2.4419-1.1611,2.3799-1.4141c-0.0664-0.2705-1.1738-0.2763-1.2363-0.5283
			c-0.0342-0.1377-0.457-0.1758-0.875-0.2109c-0.8018,0.1054-1.6006,0.2099-1.605,0.3418
			c-0.0078,0.2646,2.4478,0.5976,2.4409,0.8623c-0.0068,0.2646-2.9858,0.4599-2.9917,0.7236
			c-0.0053,0.2656,2.6553,0.5811,2.6509,0.8457c-0.0044,0.2647-1.332,0.5078-1.3354,0.7725
			c-0.0035,0.2646,0.0415,0.5312,0.0385,0.7949c-0.0019,0.2646,0.0244,0.5303,0.0235,0.7939
			c-0.001,0.2657-2.0576,0.5284-2.0581,0.793c0,0.2647,1.1782,0.5352,1.1792,0.7988c0.0005,0.2491,2.1963,0.4893,2.4497,0.7373
			C18.1989,92.38,20.4494,91.6261,20.4044,91.4474z"/>
		<path d="M16.8664,92.9581c0-0.0156-0.0103-0.0302-0.0259-0.0459c-0.5972,0.2344-1.0235,0.4268-1.0034,0.5069
			c0.0317,0.126,0.8129,0.0644,1.6123-0.001C17.1867,93.2658,16.8673,93.1144,16.8664,92.9581z"/>
		<path d="M98.924,105.4826c0.021,0.0644,0.1753,0.0849,0.393,0.0839c-0.084-0.0644-0.184-0.1347-0.292-0.208
			C98.9572,105.4113,98.9152,105.4552,98.924,105.4826z"/>
		<path d="M104.2179,116.3615c0.0005,0.0019,0-0.001,0.0005,0.0019C104.2335,116.3224,104.2291,116.3322,104.2179,116.3615z"/>
		<path d="M103.9474,117.0626c0.0796,0.0215,0.1484,0.045,0.2085,0.0694c0.0483,0,0.1025,0.0019,0.1611,0.0058
			c-0.0312-0.2363-0.0908-0.6533-0.103-0.7675C104.1725,116.4767,104.0324,116.8439,103.9474,117.0626z"/>
		<path d="M253.2414,149.5617c0-0.4004,1.5839-0.4004,1.5839-0.7998c0-0.3995-0.3808-0.3995-0.3808-0.7989
			s1.1719-0.3994,1.1719-0.7978c0-0.3985-2.0508-0.3985-2.0508-0.7979s-1.2657-0.3994-1.2657-0.7978
			c0-0.3994,1.2813-0.3994,1.2813-0.7979c0-0.3994,1.1338-0.3994,1.1338-0.7978c0-0.4004-2.8047-0.4004-2.8047-0.7998
			c0-0.4004,2.5693-0.4004,2.5693-0.8008c0-0.4014-1.4941-0.4014-1.4941-0.8018c0-0.4004-0.8086-0.4004-0.8086-0.8008
			c0-0.4003,0.3633-0.4003,0.3633-0.7998c0-0.3994,0.5781-0.3994,0.5781-0.7998c0-0.3994,2.6445-0.3994,2.6445-0.7988
			c0-0.4004-0.1591-0.4004-0.1591-0.7998c0-0.4014-3.2588-0.4014-3.2588-0.8018c0-0.4003-0.1934-0.4003-0.1934-0.8017
			c0-0.4004,3.8027-0.4004,3.8027-0.8008c0-0.4004-0.58-0.4004-0.58-0.8008c0-0.4004-1.9864-0.4004-1.9864-0.8008
			c0-0.4013,0.9961-0.4013,0.9961-0.8017c0-0.4014,2.0283-0.4014,2.0283-0.8027c0-0.3985-2.916-0.3985-2.916-0.7969
			c0-0.4004,2.751-0.4004,2.751-0.8008c0-0.4014-2.6348-0.4014-2.6348-0.8027c0-0.4004-0.746-0.4004-0.746-0.7998
			c0-0.3995-0.7911-0.3995-0.7911-0.7998c0-0.3995,0.2002-0.3995,0.2002-0.7999c0-0.4013,3.7119-0.4013,3.7119-0.8037
			c0-0.4013,0.5948-0.4013,0.5948-0.8027c0-0.4004-2.3526-0.4004-2.3526-0.8018c0-0.4023,1.4121-0.4023,1.4121-0.8046
			c0-0.4014,0.3838-0.4014,0.3838-0.8038c0-0.4013-2.1435-0.4013-2.1435-0.8027c0-0.4004-1.8203-0.4004-1.8203-0.8008
			c0-0.4033-0.0967-0.4033-0.0967-0.8056c0-0.4034,4.7275-0.4034,4.7275-0.8077c0-0.4042-1.0156-0.4042-1.0156-0.8085
			s-0.9189-0.6436-1.2031-0.9317c-0.2793-0.2842-0.5225-1.332-0.9219-1.332c-0.3984,0-0.3984,1.8887-0.7969,1.8887
			c-0.3994,0-0.3994-0.6104-0.7988-0.6104c-0.3984,0-0.3984,0.4395-0.7979,0.4395c-0.3994,0-0.3994,1.2002-0.7978,1.2002
			c-0.4004,0-0.4004-1.8614-0.7988-1.8614c-0.4004,0-0.4004,2.291-0.7998,2.291c-0.3995,0-0.3995-3.2236-0.7998-3.2236
			c-0.3995,0-0.3995,1.0225-0.7999,1.0225c-0.4003,0-0.4003,0.0507-0.7998,0.0507c-0.4003,0-0.4003,1.8223-0.8007,1.8223
			c-0.4014,0-0.4014-3.9648-0.8018-3.9648c-0.4004,0-0.4004,0.5625-0.8008,0.5625c-0.4004,0-0.4004,3.2822-0.8008,3.2822
			c-0.4003,0-0.4003-0.0772-0.8007-0.0772c-0.3995,0-0.3995-3.4843-0.7998-3.4843c-0.4004,0-0.4004,2.1211-0.7998,2.1211
			c-0.3995,0-0.3995,1.6923-0.7999,1.6923c-0.3994,0-0.3994-0.2988-0.7988-0.2988s-0.3994-0.6299-0.7988-0.6299
			c-0.4004,0-0.4004,0.0332-0.7988,0.0332c-0.3995,0-0.3995,0.8164-0.7989,0.8164s-0.3994-2.4853-0.7988-2.4853
			s-0.3994-0.2451-0.7983-0.2451c-0.399,0-0.399,0.9531-0.7984,0.9531s-0.3994,0.4053-0.7988,0.4053s-0.3994-2.1162-0.7983-2.1162
			c-0.399,0-0.399,3.4795-0.7984,3.4795s-0.3994-1.4639-0.7988-1.4639s-0.3994,0.8799-0.7988,0.8799
			c-0.3995,0-0.3995-2.3916-0.7989-2.3916s-0.3994,2.9404-0.7993,2.9404c-0.3999,0-0.3999,0.2695-0.7993,0.2695
			c-0.4004,0-0.4004-2.2187-0.8003-2.2187s-0.3999,1.5488-0.7998,1.5488c-0.4004,0-0.4004-2.5264-0.8008-2.5264
			c-0.4004,0-0.4004,2.3926-0.8008,2.3926c-0.4008,0-0.4008-1.1347-0.8017-1.1347c-0.4009,0-0.4009,1.2988-0.8018,1.2988
			s-0.4009-3.0274-0.8017-3.0274c-0.4009,0-0.4009,0.5616-0.8013,0.5616s-0.4004,2.7041-0.8008,2.7041s-0.4004-0.5967-0.8003-0.5967
			s-0.3999-1.9981-0.8003-1.9981c-0.3999,0-0.3999,2.8516-0.7998,2.8516s-0.3999-1.3232-0.7998-1.3232s-0.3999,0.2597-0.7998,0.2597
			c-0.3999,0-0.3999-2.582-0.7998-2.582s-0.3999,1.5557-0.7998,1.5557c-0.3999,0-0.3999,2.8857-0.7998,2.8857
			c-0.3999,0-0.3999-0.127-0.7998-0.127c-0.4004,0-0.4004-2.5595-0.8003-2.5595c-0.3999,0-0.3999,1.5576-0.8003,1.5576
			c-0.4004,0-0.4004-1.8545-0.8008-1.8545c-0.4004,0-0.4004,1.5938-0.8012,1.5938c-0.4009,0-0.4009-3.5254-0.8018-3.5254
			c-0.4009,0-0.4009,1.1963-0.8022,1.1963c-0.4014,0-0.4014-0.5254-0.8023-0.5254s-0.4009,4.2177-0.8013,4.2177
			c-0.4003,0-0.4003-4.6377-0.8012-4.6377c-0.4009,0-0.4009,3.2198-0.8013,3.2198c-0.4004,0-0.4004-2.8506-0.8003-2.8506
			c-0.4004,0-0.4004-0.3281-0.8008-0.3281c-0.3999,0-0.3999,3.2734-0.8003,3.2734c-0.4004,0-0.4004-2.8613-0.8007-2.8613
			c-0.4004,0-0.4004,3.83-0.8008,3.83c-0.4004,0-0.4004-2.6972-0.8013-2.6972c-0.4009,0-0.4009,2.2363-0.8013,2.2363
			c-0.4004,0-0.4004,0.7051-0.8007,0.7051c-0.4014,0-0.4014-1.833-0.8023-1.833c-0.4009,0-0.4009,0.9795-0.8022,0.9795
			c-0.4004,0-0.4004,0.9004-0.8008,0.9004s-0.4004-4.1836-0.8003-4.1836c-0.3999,0-0.3999,1.4882-0.7993,1.4882
			s-0.3994,1.4541-0.7989,1.4541c-0.3989,0-0.3989,0.2432-0.7978,0.2432c-0.3989,0-0.3989-2.0137-0.7979-2.0137
			c-0.3984,0-0.3984-0.7412-0.7973-0.7412c-0.3989,0-0.3989,1.0069-0.7979,1.0069c-0.3989,0-0.3989,1.8349-0.7973,1.8349
			c-0.399,0-0.399-1.2002-0.7979-1.2002c-0.3994,0-0.3994-0.6103-0.7983-0.6103c-0.3994,0-0.3994,1.6299-0.7989,1.6299
			c-0.3999,0-0.3999-2.5586-0.7993-2.5586c-0.4004,0-0.4004,0.2881-0.8008,0.2881c-0.4008,0-0.4008-0.335-0.8017-0.335
			c-0.4014,0-0.4014-1.001-0.8032-1.001c-0.4019,0-0.4019-0.0791-0.8033-0.0791c-0.4013,0-0.4013,1.7774-0.8027,1.7774
			c-0.4004,0-0.4004-0.0664-0.8013-0.0664c-0.4004,0-0.4004-0.7227-0.8007-0.7227c-0.4004,0-0.4004,3.7236-0.8008,3.7236
			c-0.3999,0-0.3999-3.3447-0.8003-3.3447s-0.4004,2.8828-0.8008,2.8828c-0.4004,0-0.4004,0.082-0.8013,0.082
			c-0.4008,0-0.4008-4.4746-0.8022-4.4746s-0.4014,1.0918-0.8032,1.0918c-0.4029,0-0.4029,2.8028-0.8052,2.8028
			c-0.4014,0-0.4014-1.9414-0.8032-1.9414c-0.4014,0-0.4014-0.8106-0.8028-0.8106c-0.4008,0-0.4008,0.5654-0.8022,0.5654
			s-0.4014,2.0733-0.8023,2.0733c-0.4013,0-0.4013-0.2695-0.8027-0.2695c-0.4019,0-0.4019-2.0127-0.8042-2.0127
			c-0.4023,0-0.4023,2.8105-0.8052,2.8105c-0.4018,0-0.4018-0.8018-0.8037-0.8018c-0.4018,0-0.4018-2.8544-0.8032-2.8544
			c-0.4019,0-0.4019,0.9423-0.8037,0.9423c-0.4024,0-0.4024,2.2246-0.8052,2.2246c-0.4023,0-0.4023-1.7167-0.8047-1.7167
			c-0.3999,0-0.3999,1.0351-0.8003,1.0351c-0.4013,0-0.4013,0.2959-0.8027,0.2959c-0.4028,0-0.4028-1.0039-0.8057-1.0039
			c-0.4013,0-0.4013-1.1133-0.8027-1.1133c-0.4009,0-0.4009,2.1875-0.8018,2.1875c-0.4013,0-0.4013,1.1826-0.8032,1.1826
			c-0.4038,0-0.4038-0.9228-0.8071-0.9228c-0.4024,0-0.4024,0.9951-0.8047,0.9951s-0.4023-0.8301-0.8052-0.8301
			c-0.4038,0-0.4038-3.3203-0.8076-3.3203c-0.4033,0-0.4033,2.001-0.8066,2.001c-0.4029,0-0.4029-0.7822-0.8057-0.7822
			c-0.4023,0-0.4023-1.586-0.8047-1.586c-0.4043,0-0.4043,3.7188-0.8086,3.7188c-0.4048,0-0.4048-1.4287-0.8096-1.4287
			c-0.4062,0-1.5849,0.6543-1.7084,0.2666c-0.3111-0.9786,1.1176-2.1426,0.7319-2.2686c0.0015-0.2646-0.8828,1.4551-0.8828,1.1904
			c0-0.2646-1.4859-0.5195-1.4873-0.7832c-0.0015-0.2646-0.6626-0.5078-0.6656-0.7714c-0.0039-0.2657,0.3643-0.5196,0.3589-0.7842
			c-0.0053-0.2647,2.3277-0.5791,2.3199-0.8428c-0.0074-0.2647-2.1856-0.4512-2.1954-0.7148
			c-0.0097-0.2657,1.3682-0.5762,1.356-0.8409c-0.0127-0.2646,2.5869-0.6738,2.5718-0.9384
			c-0.0152-0.2637-3.856-0.2891-3.874-0.5528c-0.0186-0.2636,3.353-0.7832,3.3315-1.0459c-0.021-0.2646,0.102-0.5654,0.0771-0.8291
			c-0.0249-0.2627-4.3833-0.084-4.4116-0.3457c-0.0283-0.2637,0.583-0.5693,0.5508-0.832
			c-0.0317-0.2617,2.4692-0.8447,2.4331-1.1065c-0.0361-0.2617-1.5571-0.3056-1.5972-0.5673
			c-0.04-0.2618,1.1851-0.7256,1.1407-0.9854c-0.045-0.2607-2.8628-0.0049-2.9117-0.2637
			c-0.0493-0.2597,2.5298-1.0234,2.4761-1.2822c-0.0542-0.2578-1.043-0.3096-1.1015-0.5674
			c-0.0591-0.2568,0.2959-0.6064,0.2319-0.8623c-0.0645-0.2558-2.1421,0.042-2.2119-0.2119
			c-0.0166-0.0605,0.0615-0.1455,0.1831-0.2432c-0.3433,0.1729-2.5767-0.0966-2.6323,0.1446
			c-0.0601,0.2578,3.8252,1.4199,3.7666,1.6777c-0.0586,0.2578-4.5166-0.4678-4.5733-0.209
			c-0.0571,0.2578,3.5708,1.3194,3.5152,1.5791c-0.0557,0.2578-0.7701,0.3701-0.8248,0.6299
			c-0.0537,0.2578,0.3394,0.6045,0.2867,0.8633c-0.0533,0.2588,0.0293,0.5371-0.0225,0.7969
			c-0.0513,0.2597-0.7788,0.3818-0.8296,0.6425c-0.0503,0.2598-0.0366,0.5293-0.0864,0.7891
			c-0.0498,0.2607-2.0435,0.1563-2.0918,0.417c-0.0483,0.2607-0.0816,0.5283-0.1289,0.79c-0.0474,0.2608,2.0464,0.9063,1.9995,1.168
			c-0.0464,0.2617-0.5879,0.4316-0.6333,0.6934c-0.0454,0.2607-1.5913,0.2646-1.6357,0.5263
			c-0.045,0.2618,0.1513,0.5664,0.1074,0.8282c-0.044,0.2617,0.2104,0.5752,0.1675,0.8369
			c-0.043,0.2617-0.6192,0.4384-0.6617,0.7011c-0.0424,0.2618,0.9659,0.6934,0.9244,0.9561
			c-0.0416,0.2617,1.1665,0.7178,1.1254,0.9795c-0.0405,0.2627-2.8569,0.0947-2.8969,0.3555
			c-0.0406,0.2617,1.7534,2.0058,1.7143,2.2666c-0.3349,0.1162-0.7969,0.7334-1.1518,0.7334c-0.3555,0-0.3555-1.3448-0.711-1.3448
			c-0.3559,0-0.3559,1.503-0.7124,1.503c-0.3564,0,0.2339-3.8409-0.1035-3.9551c-0.0615-0.2627,1.5088,0.748,1.4478,0.4844
			c-0.0616-0.2618-0.6592-0.3946-0.7198-0.6582c-0.0605-0.2637,0.1333-0.5791,0.0728-0.8428
			c-0.0596-0.2637-1.3496-0.2442-1.4082-0.5078c-0.0586-0.2637,0.1494-0.583,0.0918-0.8467
			c-0.0576-0.2656-1.5869-0.2119-1.6426-0.4766c-0.0557-0.2656,0.1714-0.5918,0.1172-0.8564
			c-0.0542-0.2656-0.1328-0.5274-0.1855-0.793c-0.0528-0.2666-1.9375-0.1855-1.9878-0.4512
			c-0.0508-0.2666,1.9306-0.9189,1.8828-1.1845c-0.0484-0.2676-0.378-0.4864-0.4239-0.753c-0.0459-0.2666,0.337-0.6064,0.294-0.874
			c-0.0435-0.2676,0.5762-0.6328,0.5361-0.9004c-0.0405-0.2675,0.7988-0.6484,0.7617-0.916
			c-0.0371-0.2685-0.4716-0.4658-0.5053-0.7344c-0.0337-0.2685-0.8355-0.4345-0.8658-0.7031
			c-0.0297-0.2695-2.9135-0.2539-2.9394-0.5234c-0.0093-0.0928,0.2519-0.2129,0.5874-0.3399c-0.5845,0.0606-2.148-0.166-2.21,0.0469
			c-0.0761,0.2598,3.3335,1.5586,3.2535,1.8164c-0.0806,0.2559-1.504,0.0879-1.5889,0.3438
			c-0.0855,0.2558,1.2866,1.0214,1.1972,1.2754c-0.0898,0.2539-3.5444-0.7247-3.6386-0.4727
			c-0.0943,0.2529,2.1318,1.377,2.0332,1.627c-0.0991,0.25-0.4429,0.4033-0.5454,0.6513c-0.1035,0.249,1.2959,1.1533,1.1884,1.3994
			c-0.1079,0.2471-1.8471-0.2216-1.9589,0.0225c-0.1123,0.2451,0.2685,0.7226,0.1518,0.9658
			c-0.1162,0.2422-0.8096,2.4873-0.9302,2.7276c-0.0581-0.2608-0.3642-2.5811-0.4199-2.8438
			c-0.0556-0.2607,0.2818-0.6074,0.228-0.8701c-0.0532-0.2617,0.1871-0.583,0.1363-0.8457
			c-0.0518-0.2627-2.5274-0.0703-2.5767-0.334c-0.0493-0.2627-0.292-0.5088-0.3393-0.7734
			c-0.0474-0.2637,1.375-0.7969,1.3291-1.0625c-0.0454-0.2637-1.2701-0.3389-1.314-0.6036
			c-0.0439-0.2646,2.3169-0.9267,2.2749-1.1923c-0.042-0.2647-0.3115-0.4942-0.3525-0.7598
			c-0.0401-0.2656-0.5689-0.458-0.6089-0.7236c-0.0396-0.2657-0.8965-0.4151-0.9351-0.6817
			c-0.0386-0.2656,0.294-0.5879,0.2564-0.8535s-1.1094-0.3935-1.146-0.6592c-0.0367-0.2666,2.2221-0.8486,2.186-1.1142
			c-0.0361-0.2657-0.6846-0.4502-0.7197-0.7168c-0.0352-0.2666,0.0493-0.5498,0.0146-0.8164
			c-0.0351-0.2676,1.6016-0.75,1.5669-1.0166c-0.0342-0.2676-0.7763-0.4424-0.8105-0.71c-0.0342-0.2676,1.3823-0.7168,1.3486-0.9844
			c-0.0342-0.2675-4.375,0.0088-4.4082-0.2588c-0.0342-0.2675-0.0459-0.538-0.0796-0.8056
			c-0.0337-0.2676,3.0899-0.9336,3.0562-1.2012c-0.0342-0.2676-3.6011-0.085-3.6353-0.3525
			c-0.0342-0.2676,2.9014-0.9161,2.8667-1.1836c-0.0347-0.2676-2.3618-0.2354-2.397-0.503
			c-0.0351-0.2685-0.0454-0.5351-0.081-0.8027c-0.0357-0.2676,2.6636-0.9023,2.6269-1.1689
			c-0.0361-0.2686-1.1616-0.3877-1.1987-0.6543c-0.0376-0.2686-0.6108-0.458-0.6489-0.7256
			c-0.0386-0.2676-0.7886-0.4268-0.8281-0.6924c-0.0396-0.2676-0.1841-0.5127-0.2247-0.7783
			c-0.041-0.2676-0.6259-0.4405-0.6679-0.7061c-0.0425-0.2676-0.5655-0.4433-0.6089-0.709c-0.044-0.2666,3.2158-1.081,3.1709-1.3457
			c-0.0459-0.2666-2.6167-0.0879-2.6636-0.3515c-0.0478-0.2657,1.2349-0.7666,1.1861-1.0303
			c-0.0499-0.2656,1.9951-0.9365,1.9438-1.1992c-0.0518-0.2647-2.1587-0.125-2.2124-0.3877
			c-0.0547-0.2656,0.5254-0.6651,0.4687-0.9268c-0.0571-0.2656-1.332-0.2568-1.3916-0.5185
			c-0.0595-0.2637,2.0801-1.042,2.0176-1.3028c-0.0625-0.2627-1.042-0.3115-1.1074-0.5703
			c-0.0664-0.2617,1.5405-0.9765,1.4717-1.2344c-0.0698-0.2607-4.6621,0.7315-4.7354,0.4756
			c-0.0742-0.2597,4.3482-1.833,4.271-2.0888c-0.06-0.1983-2.125,0.2226-3.1079,0.3105c0.3154,0.2861,0.7412,0.6123,0.686,0.7686
			c-0.0893,0.2539-2.0224-0.1407-2.1113,0.1133c-0.0888,0.2548-1.6845-0.0157-1.7729,0.2382
			c-0.0889,0.2539,1.4223,1.0664,1.334,1.3203c-0.0879,0.2549-1.3672,0.1006-1.4546,0.3545
			c-0.0879,0.2549,3.167,1.6582,3.0796,1.9131c-0.0874,0.2539,0.0493,0.5821-0.0376,0.836
			c-0.087,0.2558-3.1968-0.5196-3.2832-0.2657c-0.0865,0.2559,3.2578,1.6719,3.1718,1.9268
			c-0.0864,0.2549-0.9057,0.2578-0.9917,0.5127c-0.0859,0.2558-3.8506-0.7207-3.9355-0.4658
			c-0.085,0.2549,3.8154,1.8398,3.7305,2.0947c-0.085,0.2549-3.6836-0.6563-3.7681-0.4004
			c-0.0845,0.2559,3.4995,1.7197,3.4155,1.9746c-0.084,0.2559-2.9492-0.4014-3.0332-0.1465
			c-0.0835,0.2559-0.4512,0.4209-0.5342,0.6758c-0.083,0.2559,1.3609,1.0088,1.2784,1.2647
			c-0.0831,0.2558-2.8575-0.3565-2.94-0.1006c-0.0825,0.2558,0.0864,0.5967,0.0044,0.8525
			c-0.082,0.2568,3.4121,1.6553,3.3306,1.9111c-0.0816,0.2559,0.4829,0.7139,0.4018,0.9698
			c-0.081,0.2558-1.4463,0.1054-1.5268,0.3613c-0.0811,0.2568-0.7783,0.3174-0.8584,0.5742
			c-0.0806,0.2569,0.9321,0.8516,0.8525,1.1084c-0.0801,0.2569-1.4585,0.1094-1.5381,0.3672
			c-0.0796,0.2559-0.4839,0.4131-0.563,0.6709c-0.0791,0.2568,1.3077,0.9629,1.2286,1.2197
			c-0.0791,0.2578-0.0591,0.541-0.1373,0.7979c-0.0781,0.2578-2.2382-0.1172-2.3164,0.1406
			c-0.0776,0.2568,0.3096,0.6553,0.232,0.9131c-0.0777,0.2578,2.4936,1.3096,2.4165,1.5664
			c-0.0772,0.2578-2.0757-0.0615-2.1524,0.1963c-0.0766,0.2578-0.6753,0.3603-0.7514,0.6182
			c-0.0762,0.2578,0.2324,0.6289,0.1567,0.8867s-1.3345,0.1699-1.4097,0.4277c-0.0752,0.2578-0.7856,0.332-0.8608,0.5898
			c-0.0747,0.2588,0.2642,0.6377,0.1895,0.8956c-0.0748,0.2587,0.4169,0.6806,0.3427,0.9394
			c-0.0742,0.2578-1.7558,0.0586-1.8296,0.3164c-0.0737,0.2588-0.414,0.4434-0.4878,0.7022
			c-0.0732,0.2588,1.9732,1.1191,1.9004,1.3789c-0.0732,0.2578-0.957,0.289-1.0298,0.5478
			c-0.0722,0.2588,0.3008,0.6436,0.2286,0.9014c-0.0723,0.2588,0.4131,0.6728,0.3418,0.9316
			c-0.0718,0.2588-1.7608,0.0742-1.8321,0.333c-0.0703,0.2588,2.5816,1.2627,2.5113,1.5215
			c-0.0708,0.2588-2.1958-0.04-2.2657,0.2188c-0.0507,0.1875-0.7578,0.1982-1.1733,0.2871
			c0.0547-0.1826,0.1333-0.3731,0.0869-0.5254c-0.0767-0.25-1.5478-0.0703-1.625-0.3203c-0.0771-0.251,1.3164-0.9531,1.2388-1.2031
			c-0.0777-0.251,1.166-0.9151,1.0874-1.1641c-0.0786-0.251-1.9458,0.0654-2.0254-0.1836c-0.0796-0.25-0.0825-0.5186-0.1636-0.7666
			c-0.0815-0.25,0.6362-0.7598,0.5532-1.0078c-0.083-0.2481,0.5547-0.7432,0.4703-0.9903c-0.085-0.248-1.1045-0.1748-1.1915-0.4209
			c-0.0869-0.248,2.0508-1.2988,1.9615-1.5449c-0.0894-0.247-4.1519,0.9756-4.2437,0.7315
			c-0.0928-0.2461-0.2651-0.4297-0.3598-0.6739c-0.0957-0.2441,0.2148-0.6181,0.1167-0.8593
			c-0.0997-0.2442-0.8223-0.1895-0.9248-0.4307c-0.1031-0.2412,3.1596-1.9375,3.0532-2.1768
			c-0.1074-0.2392-1.6631,0.1768-1.774-0.0595c-0.1113-0.2373-0.4287-0.3623-0.5439-0.5967
			c-0.019-0.0381-0.0811-0.0527-0.1587-0.0596c-0.4717,0.1514-1.8213,0.1592-1.8574,0.3848
			c-0.043,0.2646,0.0312,0.5498-0.0117,0.8174c-0.043,0.2656-0.1167,0.5273-0.1607,0.7949
			c-0.0429,0.2666,0.6035,0.6465,0.5596,0.9141c-0.0435,0.2666-2.0942,0.2031-2.1392,0.4707
			c-0.0439,0.2666,2.835,1.0263,2.7891,1.2949c-0.0449,0.2656-1.7954,0.2441-1.8418,0.5127
			c-0.0464,0.2666,2.208,0.9463,2.1602,1.2138c-0.0479,0.2676-0.3863,0.4942-0.4356,0.7618
			c-0.0493,0.2666-3.2978-0.0635-3.3496,0.2041c-0.0508,0.2666,2.6606,1.0732,2.6079,1.3408
			c-0.0532,0.2666-2.2383,0.1055-2.2934,0.373c-0.0552,0.2657,1.6206,0.9004,1.5629,1.167c-0.0571,0.2657,0.979,0.791,0.919,1.0567
			c-0.0601,0.2656-2.9541-0.1162-3.0171,0.1484c-0.063,0.2656,0.3047,0.6318,0.2393,0.8955
			c-0.066,0.2637-2.3438-0.0527-2.4131,0.211c-0.0381,0.1464,0.6074,0.4716,1.1777,0.7773c-0.6211-0.0332-1.356-0.042-1.3877-0.1953
			c-0.0547-0.2637-0.6323-0.4151-0.688-0.6768c-0.0561-0.2627,0.5205-0.6601,0.4634-0.9219
			c-0.0576-0.2626-0.2969-0.4843-0.3555-0.7451c-0.0595-0.2627-1.7461-0.1406-1.8076-0.4023
			c-0.0615-0.2617,2.1651-1.0635,2.1021-1.3233c-0.064-0.2607,0.354-0.6484,0.2885-0.9072
			c-0.0669-0.2617-1.8378-0.081-1.9067-0.3398c-0.0693-0.2617,2.398-1.2178,2.3267-1.4756c-0.0723-0.2598-3.7227,0.5058-3.7979,0.25
			c-0.0762-0.2588,1.6616-1.0488,1.5825-1.3037c-0.0595-0.1914-1.2627-0.0078-1.9043-0.0069
			c0.1665,0.1289,0.2705,0.2354,0.2491,0.2969c-0.086,0.2471-3.1206-0.5166-3.2046-0.2685c-0.084,0.248,3.1377,1.6054,3.0556,1.8535
			c-0.0825,0.248-3.0551-0.4473-3.1352-0.1992c-0.0801,0.249,1.2046,0.9384,1.1264,1.1875c-0.0781,0.25-1.3647,0.1308-1.4414,0.3808
			c-0.0761,0.25,1.6626,1.0518,1.5879,1.3018c-0.0742,0.251,1.4434,0.9609,1.3701,1.2119c-0.0732,0.251-2.9633-0.3115-3.0346-0.0596
			c-0.0713,0.251,2.0859,1.124,2.0166,1.376c-0.0698,0.252,0.146,0.5703,0.0776,0.8232c-0.0679,0.253-1.8437,0.044-1.9101,0.2969
			c-0.0669,0.2529-2.0176,0.0215-2.0826,0.2754c-0.0649,0.2529,3.1202,1.3301,3.0567,1.584
			c-0.0635,0.2539-3.8926-0.4209-3.9546-0.168c-0.0122,0.0508,0.0029,0.1084,0.0195,0.166
			c-0.5766-0.0595-1.2134-0.1113-1.2353-0.2558c-0.0401-0.2617,1.9507-0.836,1.9101-1.0987
			c-0.0405-0.2627-2.8164-0.1005-2.8574-0.3642c-0.041-0.2627,3.6655-1.1133,3.624-1.376c-0.0415-0.2637-4.039,0.1025-4.081-0.1601
			c-0.042-0.2637,4.1406-1.2051,4.0981-1.4678c-0.0425-0.2627-3.6362,0.0527-3.6792-0.211
			c-0.0434-0.2627,1.5542-0.7959,1.5103-1.0576c-0.044-0.2636,0.7719-0.6718,0.727-0.9355
			c-0.0444-0.2617,0.8535-0.6924,0.8076-0.9551c-0.0454-0.2627-0.2446-0.5049-0.291-0.7676
			c-0.0469-0.2617-1.8789-0.207-1.9267-0.4687c-0.0479-0.2627-1.6621-0.2324-1.711-0.4951
			c-0.0488-0.2618-0.1084-0.5147-0.1582-0.7764c-0.0498-0.2617,0.5308-0.6377,0.4795-0.8994
			c-0.0513-0.2617-0.2954-0.4815-0.3476-0.7422c-0.0523-0.2608,0.2392-0.586,0.1855-0.8467
			c-0.0542-0.2617,2.1089-0.9873,2.0537-1.248c-0.0552-0.2608-3.5659,0.2216-3.6225-0.0391
			c-0.0567-0.2607-0.1514-0.498-0.2095-0.7588c-0.0586-0.2607,0.0444-0.543-0.0156-0.8027
			c-0.0601-0.2608,0.4262-0.6358,0.3647-0.8955c-0.062-0.2598,1.1509-0.8213,1.0874-1.0801
			c-0.0635-0.2598-2.1894,0.0039-2.2549-0.2539c-0.0654-0.2588,2.7388-1.249,2.6714-1.5069
			c-0.0674-0.2578-2.5517,0.129-2.6211-0.1279c-0.0693-0.2578,1.5137-0.959,1.4424-1.2158
			c-0.0718-0.2578,1.209-0.9014,1.1353-1.1582c-0.0738-0.2568-1.0713-0.249-1.147-0.5049
			c-0.0757-0.2558,0.2563-0.6396,0.1782-0.8945c-0.0781-0.2549-0.6758-0.3526-0.7563-0.6065
			c-0.0806-0.2539,1.7924-1.1504,1.7094-1.4033c-0.083-0.2539-2.3613,0.2129-2.4467-0.039
			c-0.0855-0.253,1.0561-0.9356,0.9682-1.1866c-0.0884-0.2509-0.1069-0.542-0.1977-0.7929
			c-0.0909-0.251,0.6865-0.8438,0.5927-1.0928c-0.0937-0.25-4.1557,1.0137-4.2519,0.7656c-0.0967-0.248,0.1089-0.5928,0.0097-0.8398
			c-0.0996-0.2471,2.8252-1.7305,2.7232-1.9766c-0.1025-0.2461-2.0249,0.2695-2.1304,0.0254
			c-0.1054-0.2441,2.2398-1.5791,2.1309-1.8223c-0.1074-0.2412-4.0762,1.2715-4.2554,1.0625
			c-0.0078,0.0811-0.0141,0.1621-0.0244,0.2432c-0.0313,0.2617,1.9092,0.7832,1.8745,1.0478
			c-0.0342,0.2598-3.2925,0.086-3.3286,0.3477c-0.0371,0.2598,2.2139,0.8506,2.1748,1.1133
			c-0.0386,0.2597-2.2197,0.1924-2.2607,0.4551c-0.0411,0.2597,0.2954,0.5742,0.2519,0.8359
			c-0.043,0.2598,0.0396,0.5381-0.0054,0.7998c-0.0449,0.2607,0.2095,0.5703,0.1621,0.832
			c-0.0468,0.2598,0.7344,0.6748,0.6856,0.9366c-0.0488,0.2597,1.2036,0.7773,1.1528,1.039
			c-0.0508,0.2598-0.688,0.4151-0.7407,0.6768c-0.0522,0.2597,0.4893,0.6533,0.4351,0.914
			c-0.0542,0.2588-2.7647-0.041-2.8203,0.2188c-0.0557,0.2588,2.3862,1.0644,2.3286,1.3252
			c-0.0572,0.2588,0.3808,0.6426,0.3217,0.9023c-0.059,0.2578,0.0479,0.5703-0.0131,0.8301
			c-0.0606,0.2598-3.3116-0.2344-3.3736,0.0254c-0.0625,0.2588,2.9204,1.2627,2.8565,1.5225
			c-0.0635,0.2578-1.9307,0.0752-1.9956,0.333c-0.0655,0.2578,0.8491,0.7724,0.7822,1.0302
			c-0.0664,0.2588-3.6226-0.3955-3.6904-0.1377c-0.0142,0.0528,0.0781,0.1348,0.2275,0.2305
			c-0.3008-0.0478-0.561-0.1045-0.583-0.2109c-0.0542-0.2598-1.2778-0.2715-1.3325-0.5313
			c-0.0547-0.2597,3.4218-1.2656,3.3667-1.5254c-0.0557-0.2597-1.438-0.2353-1.4937-0.4941
			c-0.0561-0.2598,1.0239-0.7676,0.9673-1.0264c-0.0566-0.2597-0.6782-0.3965-0.7358-0.6562
			c-0.0577-0.2588-0.2051-0.499-0.2632-0.7578c-0.0581-0.2588-2.4356,0.0078-2.4942-0.251
			c-0.059-0.2588-0.1137-0.5137-0.1728-0.7725c-0.0596-0.2588,1.0942-0.7939,1.0347-1.0527c-0.0606-0.2578,1.351-0.8613,1.29-1.1191
			c-0.061-0.2588-2.8276,0.1308-2.8897-0.128c-0.062-0.2578-0.0151-0.5361-0.0776-0.7939c-0.063-0.2578,3.3794-1.375,3.3154-1.6328
			c-0.0634-0.2569-3.2553,0.2656-3.3203,0.0078c-0.0644-0.2569,0.1734-0.5869,0.1079-0.8438
			c-0.0654-0.2568,0.8492-0.7627,0.7828-1.0185c-0.0669-0.2578-1.9585-0.0313-2.0264-0.2881c-0.0674-0.2559,0.6294-0.71,0.56-0.9658
			c-0.0683-0.2559,2.0967-1.1153,2.0274-1.3711c-0.0703-0.2559-0.1641-0.5098-0.2354-0.7657
			c-0.0708-0.2558-1.9575-0.0029-2.0293-0.2587c-0.0722-0.2549-1.3881-0.1485-1.4614-0.4034
			c-0.0732-0.2558,0.5664-0.708,0.4922-0.9619c-0.0747-0.2549,3.3628-1.5498,3.2871-1.8037
			c-0.0762-0.2539-0.6274-0.374-0.7046-0.6279c-0.0771-0.2539-1.373-0.1397-1.4512-0.3926
			c-0.0786-0.2539,0.5186-0.7227,0.4385-0.9756c-0.0796-0.2529,0.6426-0.7695,0.5615-1.0215
			c-0.081-0.2529-0.5883-0.3769-0.6708-0.6289c-0.0596-0.1826-2.0879,0.2871-3.2403,0.4668
			c0.458,0.2364,0.9917,0.4873,0.9649,0.6377c-0.0469,0.2637-1.0191,0.3633-1.066,0.628c-0.0468,0.2636,0.6333,0.6572,0.5865,0.9218
			c-0.0469,0.2637-1.4917,0.2793-1.5386,0.543c-0.0464,0.2646-1.5806,0.2656-1.6274,0.5293
			c-0.0469,0.2646-1.0191,0.3623-1.066,0.6269c-0.0473,0.2637,1.564,0.8243,1.5171,1.0879
			c-0.0469,0.2647-1.8594,0.2129-1.9062,0.4776c-0.0474,0.2646,4.1538,1.2861,4.1064,1.5498
			c-0.0469,0.2646-2.2724,0.1396-2.3198,0.4043c-0.0474,0.2636-1.8174,0.2207-1.8648,0.4853
			c-0.0468,0.2637,3.3077,1.1348,3.2603,1.3994c-0.0469,0.2637,0.2319,0.5879,0.1846,0.8516
			c-0.0474,0.2647-0.774,0.4072-0.8208,0.6709c-0.0479,0.2647,1.1421,0.75,1.0947,1.0137
			c-0.0474,0.2646-3.6221-0.1045-3.6694,0.1592c-0.0474,0.2636,1.5258,0.8193,1.4785,1.083
			c-0.0474,0.2636-0.6216,0.4345-0.6695,0.6982c-0.0473,0.2637-0.9316,0.377-0.9794,0.6416
			c-0.0474,0.2637,0.0922,0.5606,0.0444,0.8252c-0.0479,0.2637-0.6094,0.4336-0.6572,0.6973
			c-0.0484,0.2636-0.7251,0.4131-0.773,0.6767c-0.0483,0.2637,3.6172,1.2051,3.5693,1.4688
			c-0.0483,0.2636-2.6235,0.0674-2.6713,0.331c-0.0484,0.2647,1.81,0.875,1.7622,1.1387c-0.0484,0.2646,0.917,0.7188,0.8681,0.9824
			c-0.0483,0.2637-3.6059-0.1181-3.6543,0.1465c-0.0483,0.2637,2.1817,0.9453,2.1333,1.209
			c-0.0488,0.2637,1.17,0.7637,1.1211,1.0273c-0.0488,0.2637-2.8369,0.0196-2.8857,0.2832
			c-0.0488,0.2637,0.5937,0.6553,0.5449,0.919c-0.0488,0.2646,0.0454,0.5556-0.0034,0.8193
			c-0.0493,0.2637-1.8218,0.2051-1.8711,0.4688c-0.0493,0.2636,2.4204,0.999,2.3711,1.2627
			c-0.0493,0.2636-1.2988,0.3027-1.3486,0.5664c-0.0498,0.2636-1.3492,0.291-1.399,0.5547
			c-0.0498,0.2636,1.8238,0.8906,1.774,1.1543c-0.0498,0.2636-3.0723-0.0342-3.1221,0.2294
			c-0.0498,0.2637,3.4106,1.1915,3.3603,1.4551c-0.0498,0.2637-3.437-0.1074-3.4873,0.1563
			c-0.0498,0.2607-0.1264,0.5156-0.1767,0.7754c-0.9375,0.2187-2.4658,0.708-2.5445,0.5371
			c-0.1123-0.2422,2.3252-1.6836,2.2105-1.9239c-0.1148-0.2402,0.4228-0.8232,0.3052-1.0625
			c-0.1177-0.2392-1.6485,0.2071-1.7691-0.0312c-0.1211-0.2383-0.0405-0.5928-0.164-0.8291
			c-0.1241-0.2373,0.6455-0.9727,0.5185-1.207c-0.1269-0.2354-2.5508,0.7783-2.6806,0.5439
			c-0.1299-0.2334-0.313-0.4267-0.4458-0.6582c-0.1333-0.2324,0.8037-1.0879,0.6679-1.3164c-0.1367-0.2305-2.73,1.04-2.8686,0.8135
			c-0.1407-0.2276,2.395-2.1153,2.2524-2.3389c-0.1435-0.2266-0.3042-0.456-0.4497-0.6777
			c-0.1475-0.2237-1.7471,0.5293-1.897,0.3095c-0.1504-0.2207-0.6718-0.1591-0.8252-0.3759
			c-0.1543-0.2178-0.998,0.1015-1.1547-0.1123c-0.1583-0.2149,0.7602-1.1983,0.5996-1.4082
			c-0.1621-0.212,0.9389-1.4063,0.7739-1.6133c-0.167-0.209,0.4858-1.1162,0.3159-1.3203
			c-0.1709-0.2061-0.1685-0.6162-0.3423-0.8155c-0.1753-0.2011-3.2221,2.1524-3.3999,1.9571
			c-0.1797-0.1973,0.9483-1.5821,0.7656-1.7735c-0.1845-0.1924-0.6777-0.0732-0.8657-0.2597
			c-0.1157-0.1153-0.6025,0.1718-1.0073,0.3711c0.4165,0.2363,1.1904,0.5205,1.1675,0.7207
			c-0.0288,0.2519-3.7759,0.0898-3.8072,0.3623c-0.0288,0.2539,3.6202,0.9375,3.5889,1.208
			c-0.0293,0.2549-3.5854,0.1084-3.6167,0.3769c-0.0298,0.2559,3.2681,0.9082,3.2363,1.1758
			c-0.0307,0.2568-3.3877,0.1172-3.4204,0.3838c-0.0312,0.2578-0.0937,0.5107-0.1269,0.7764
			c-0.0322,0.2597,4.4087,1.0869,4.3745,1.3535c-0.0332,0.2588-4.4282-0.0488-4.4639,0.2158
			c-0.0342,0.2598,0.1333,0.541,0.0972,0.8057c-0.0361,0.2578,0.1367,0.539,0.0996,0.8007
			c-0.0366,0.2598,3.9829,1.1065,3.9443,1.3692c-0.038,0.2578-0.6582,0.4424-0.6982,0.7051
			c-0.0396,0.2597-2.1851,0.1972-2.2266,0.4599c-0.041,0.2598,2.3716,0.9209,2.3286,1.1836
			c-0.0424,0.2588,0.3335,0.6045,0.2891,0.8653c-0.0444,0.2587-4.5244-0.251-4.5703,0.0097
			c-0.0464,0.2598,3.061,1.0889,3.0127,1.3487c-0.0479,0.2597-2.5308,0.0625-2.5806,0.3232
			c-0.0498,0.2607-1.1841,0.2939-1.2363,0.5537c-0.0522,0.2607,0.4756,0.6231,0.4209,0.8838
			c-0.0542,0.2598,2.5508,1.084,2.4941,1.3437c-0.0566,0.2608-0.7163,0.3926-0.7754,0.6514
			c-0.059,0.2598-0.4487,0.4443-0.5107,0.7031c-0.0615,0.2588,2.1733,1.0909,2.1089,1.3487
			c-0.0396,0.1572-1.5938-0.0703-2.8189-0.2149c-0.0537,0.2949-0.1054,0.541-0.1377,0.4317
			c-0.0756-0.2578-2.1416,0.082-2.2182-0.1739c-0.0777-0.2578,2.4531-1.3017,2.375-1.5576
			c-0.0791-0.2578-0.5747-0.3867-0.6543-0.6426c-0.0806-0.2568-2.5064,0.2364-2.5879-0.0195
			c-0.082-0.2558-0.3086-0.4502-0.3916-0.7041c-0.0835-0.2558,2.4419-1.3642,2.3564-1.6182
			c-0.0854-0.2548-0.9795-0.2324-1.0669-0.4853c-0.0874-0.2549-1.9086,0.1084-1.998-0.1436
			c-0.0894-0.2539,2.2256-1.3574,2.1343-1.6084c-0.0918-0.2529,1.4546-1.1201,1.3608-1.3701
			c-0.0942-0.2519,0.2056-0.6767,0.1094-0.9258c-0.0972-0.2509-4.3272,1.1221-4.4258,0.8741
			c-0.0996-0.25,0.9736-0.9551,0.8711-1.2022c-0.1025-0.248,1.4492-1.1904,1.3447-1.4365
			c-0.1059-0.2481-0.2129-0.5098-0.3213-0.7549c-0.1093-0.2461,0.1206-0.6601,0.0093-0.9033
			c-0.1123-0.2451-0.5322-0.3652-0.647-0.6065c-0.1162-0.2431,0.4043-0.8154,0.2862-1.0546
			c-0.1196-0.2413-1.1192-0.0606-1.2417-0.2979c-0.1231-0.2392-0.5-0.3545-0.626-0.5898c-0.1274-0.2364,0.751-1.045,0.6206-1.2774
			c-0.1313-0.2344-1.5381,0.2432-1.6728,0.0137c-0.1358-0.2315,1.415-1.501,1.2758-1.7285
			c-0.1406-0.2285-1.5693,0.3193-1.7133,0.0957c-0.1451-0.2256-2.7915,1.2236-2.9405,1.0029
			c-0.1504-0.2226,3.419-3.0176,3.2637-3.2353c-0.1553-0.2188-2.1875,0.9013-2.3477,0.6875
			c-0.1606-0.2139-0.3686-0.3858-0.5336-0.5938c-0.1661-0.21-0.1949-0.5264-0.3653-0.7305
			c-0.1719-0.205-0.2656-0.4795-0.4419-0.6787c-0.1772-0.1992,0.647-1.3437,0.4654-1.5371
			c-0.1831-0.1943-0.8809,2.5362-1.0689,2.3477c-0.0654,0.2617-0.5889-1.3672-0.6528-1.1055
			c-0.0635,0.2637,0.2002,0.6016,0.1382,0.8652c-0.0621,0.2627,0.4433,0.6524,0.3833,0.9161
			c-0.0601,0.2627-2.4263,0.0087-2.4849,0.2724c-0.0581,0.2637-0.1807,0.5205-0.2378,0.7842
			c-0.0566,0.2637,2.0742,0.9951,2.0186,1.2598c-0.0552,0.2636-2.0122,0.1347-2.0664,0.3994
			c-0.0542,0.2646-1.2994,0.2978-1.3521,0.5635c-0.0527,0.2636,2.648,1.0742,2.5967,1.3398
			c-0.0518,0.2656-0.4424,0.4629-0.4927,0.7285c-0.0503,0.2656,0.54,0.6504,0.4907,0.916
			c-0.0493,0.2657-3.0053-0.0009-3.0537,0.2647c-0.0483,0.2656,3.9566,1.2617,3.9092,1.5273
			c-0.0474,0.2656-4.2642-0.2041-4.3105,0.0615c-0.0469,0.2666,2.2768,0.9473,2.2309,1.2139
			c-0.0459,0.2656-1.9136,0.2217-1.9585,0.4873c-0.0459,0.2666-0.313,0.4981-0.3579,0.7656
			c-0.0449,0.2657,3.6392,1.1582,3.5947,1.4239c-0.0444,0.2666-4.1811-0.1475-4.2256,0.1191
			c-0.0439,0.2666,0.983,0.7129,0.939,0.9805c-0.0435,0.2666-1.0703,0.374-1.1143,0.6406c-0.0429,0.2676,2.2569,0.915,2.2139,1.1816
			c-0.0439,0.2676,1.8272,0.8448,1.7837,1.1114c-0.043,0.2666-3.2764,0.0156-3.3198,0.2832
			c-0.0435,0.2666,1.6396,0.8144,1.5962,1.081c-0.0435,0.2666,1.3901,0.7764,1.3467,1.043
			c-0.044,0.2666-3.4078-0.0127-3.4517,0.2539c-0.0444,0.2666,2.2773,0.9268,2.2329,1.1934
			c-0.0444,0.2666,0.9971,0.7158,0.9526,0.9834c-0.0449,0.2656-4.1855-0.1592-4.2314,0.1074
			c-0.0449,0.2666,3.3984,1.1308,3.3525,1.3965c-0.0459,0.2666-1.3315,1.331-1.3779,1.5966
			c-0.3682,0.1192-0.7344-2.4248-1.1211-2.4248c-0.3862,0-0.3862,2.2022-0.7724,2.2022c-0.3887,0-0.3887,1.165-0.7769,1.165
			c-0.3892,0-0.3892-2.7295-0.7778-2.7295c-0.3902,0-0.3902,1.5108-0.7803,1.5108c-0.3901,0-0.1621-1.5547-0.5376-1.6602
			c-0.0991-0.2461,0.3769,0.0479,0.2788-0.2031c-0.0972-0.249-3.1953,0.6523-3.291,0.4004c-0.0952-0.25,3.2378-1.7949,3.144-2.0488
			c-0.0932-0.25-0.0654-0.5362-0.1577-0.7901c-0.0918-0.251-3.706,0.7637-3.7969,0.5088c-0.0898-0.2519,2.7334-1.5381,2.6446-1.793
			c-0.0879-0.2519,0.7964-0.832,0.7094-1.0859c-0.0864-0.2529-2.5791,0.3125-2.6645,0.0576
			c-0.0855-0.2539,2.2163-1.3008,2.1318-1.5556c-0.084-0.2549-1.6699-0.0118-1.7529-0.2676
			c-0.083-0.2559,0.6875-0.7832,0.6055-1.0391c-0.0821-0.2558-0.2813-0.4707-0.3623-0.7275
			c-0.0806-0.2569-0.8633-0.292-0.9429-0.5498c-0.0796-0.2559-0.9898-0.2598-1.0689-0.5176
			c-0.0786-0.2578-0.2573-0.4883-0.3349-0.7461c-0.0777-0.2588,1.9658-1.1504,1.8891-1.4082
			c-0.0771-0.2588,0.0352-0.5664-0.041-0.8262c-0.0757-0.2588-2.8652,0.2725-2.9399,0.0137
			c-0.0752-0.2598,2.3652-1.2412,2.291-1.501c-0.0742-0.2597,0.5313-0.708,0.458-0.9668c-0.0737-0.2607-4.0425,0.5723-4.1147,0.3125
			c-0.0728-0.2607,1.5571-0.9961,1.4858-1.2558c-0.0723-0.2618-2.0342-0.0059-2.105-0.2657
			c-0.0718-0.2617,1.7525-1.041,1.6822-1.3007c-0.0709-0.2618-0.7608-0.3565-0.8311-0.6162
			c-0.0693-0.2627,0.5542-0.709,0.4853-0.9688c-0.0698-0.2627-0.2377-0.498-0.3061-0.7578
			c-0.0689-0.2637-1.5034-0.169-1.5708-0.4287c-0.0684-0.2627,3.1894-1.3858,3.1221-1.6446
			c-0.0674-0.2636-1.6831-0.125-1.7495-0.3847c-0.0674-0.2637-2.4366,0.0605-2.502-0.1983
			c-0.0674-0.2636,2.6084-1.2216,2.543-1.4804c-0.0342-0.1348-0.8936-0.0616-1.7329,0.0068
			c0.1826,0.1055,0.3388,0.2119,0.3398,0.3203c0.0024,0.2647-1.8042,0.544-1.8013,0.8086c0.0035,0.2647,0.1338,0.5264,0.1377,0.7901
			c0.0039,0.2646,1.9199,0.4912,1.9248,0.7558c0.0049,0.2637-0.1801,0.5274-0.1748,0.792c0.0054,0.2647-3.9467,0.6113-3.9409,0.876
			c0.0059,0.2637-0.8179,0.5537-0.811,0.8174c0.0063,0.2646,1.289,0.5009,1.2964,0.7646c0.0073,0.2647-0.2447,0.5391-0.2369,0.8027
			c0.0079,0.2637,2.3145,0.459,2.3228,0.7237c0.0078,0.2646-2.0869,0.5947-2.0786,0.8594c0.0088,0.2636,1.3608,0.4843,1.3701,0.748
			c0.0088,0.2646-1.5278,0.583-1.5186,0.8467c0.0093,0.2637,0.8956,0.498,0.9053,0.7627c0.0098,0.2636,2.3164,0.4433,2.3262,0.707
			c0.0098,0.2647-2.8125,0.6338-2.8023,0.8975c0.0098,0.2636,0.9986,0.4912,1.0088,0.7558c0.0103,0.2637-1.4965,0.586-1.4863,0.8496
			c0.0103,0.2647,1.4722,0.4717,1.4829,0.7354c0.0103,0.2637,0.7788,0.498,0.7891,0.7617c0.0107,0.2647,1.9101,0.4522,1.9209,0.7158
			c0.0102,0.2637-0.6314,0.5557-0.6211,0.8194c0.0102,0.2636,0.6343,0.5009,0.6445,0.7646
			c0.0108,0.2637-3.8691,0.6797-3.8594,0.9434c0.0103,0.2636,2.2339,0.4433,2.2437,0.707c0.0102,0.2637-2.2241,0.6113-2.2144,0.875
			c0.0098,0.2637-0.9067,0.5586-0.8969,0.8223c0.0092,0.2636-0.0284,0.5244-0.0191,0.789c0.0088,0.2637,4.8711,0.3633,4.8799,0.627
			c0.0078,0.2314-3.6265,0.581-4.5122,0.8418c-0.0693-0.3506-0.1523-0.5977-0.2686-0.5977c-0.4169,0-0.4169,1.3975-0.8339,1.3975
			c-0.418,0-0.418,1.5273-0.8365,1.5273c-0.4184,0-0.3325-1.0029-0.7382-1.1045c-0.1172-0.2402,0.7485-0.6113,0.6323-0.8515
			c-0.1157-0.2412-1.3135,0.041-1.4278-0.2012c-0.1147-0.2402,0.4087-0.7803,0.2955-1.0215
			c-0.1128-0.2422,1.4228-1.2422,1.311-1.4844c-0.1118-0.2421-4.6226,1.5352-4.7334,1.293
			c-0.1109-0.2422,1.7373-1.3808,1.6279-1.625c-0.1094-0.2441,0.9717-1.0156,0.8633-1.2598
			c-0.1084-0.2441,0.9468-0.996,0.8394-1.2402c-0.1075-0.2441-0.3985-0.3984-0.5049-0.6435
			c-0.1065-0.2442-2.9849,0.7138-3.0908,0.4677c-0.1055-0.2451-0.2457-0.4795-0.3501-0.7246
			c-0.1045-0.2461,1.8549-1.3672,1.7509-1.6123c-0.104-0.2461-0.3828-0.4131-0.4858-0.6592
			c-0.103-0.2461-2.8511,0.6084-2.9526,0.3614c-0.1026-0.2461,3.3608-1.9668,3.2592-2.2149
			c-0.102-0.2461-1.6865,0.1201-1.7881-0.1269c-0.101-0.2471-0.4052-0.4102-0.5058-0.6582
			c-0.1011-0.2471,0.0781-0.6075-0.0225-0.8536c-0.0376-0.0927-0.2802-0.1035-0.5737-0.0927
			c0.0063,0.0449,0.0161,0.0898,0.0107,0.1328c-0.0332,0.2617-1.1035,0.3877-1.1357,0.6523
			c-0.0317,0.2617-3.0488,0.167-3.0801,0.4326c-0.0312,0.2618,3.7749,0.9708,3.7446,1.2354
			c-0.0297,0.2627-1.5522,0.3535-1.5815,0.6191c-0.0283,0.2627,1.5962,0.6963,1.5684,0.962
			c-0.0274,0.2636-2.5484,0.2695-2.5747,0.5351c-0.0264,0.2647,1.916,0.7149,1.8911,0.9805
			c-0.0249,0.2646,0.3676,0.5566,0.3442,0.8232c-0.0234,0.2647-2.8999,0.2822-2.9219,0.5479
			c-0.0219,0.2656,0.0498,0.5429,0.0293,0.8086c-0.0205,0.2656-1.4199,0.4375-1.4389,0.705
			c-0.0186,0.2657,4.2055,0.8155,4.1884,1.0831c-0.017,0.2656-2.2461,0.3896-2.2617,0.6572
			c-0.0156,0.2656,0.1953,0.5429,0.1817,0.8105c-0.0137,0.2666-0.3374,0.5176-0.3492,0.7852
			c-0.0122,0.2666-1.1855,0.4902-1.1958,0.7578c-0.0097,0.2666,0.9009,0.5693,0.8931,0.8369
			c-0.0083,0.2676,1.4126,0.5684,1.4063,0.8359c-0.0059,0.2666-1.042,0.5098-1.0459,0.7764
			c-0.0039,0.2676,1.1264,0.541,1.1245,0.8086c-0.0015,0.2676,1.186,0.5215,1.1865,0.7891
			c0.0005,0.2675-3.6904,0.5527-3.6875,0.8203c0.0029,0.2676,2.7939,0.4902,2.7993,0.7578
			c0.0054,0.2676-1.8584,0.5752-1.8506,0.8428c0.0083,0.2675,2.7696,0.4277,2.7803,0.6953
			c0.0107,0.2676-3.3188,0.6777-3.3052,0.9453c0.0132,0.2676-1.271,0.6211-1.2549,0.8887c0.0162,0.2675,4.4849,0.2382,4.5044,0.5048
			c0.0191,0.2676-2.0571,0.6836-2.0351,0.9502c0.0224,0.2676,1.1216,0.4288,1.147,0.6944c0.0253,0.2676,1.2631,0.3857,1.2919,0.6513
			c0.0289,0.2666-2.0053,0.751-1.9731,1.0157c0.0322,0.2666-0.2891,0.5752-0.2529,0.8398c0.0356,0.2666,0.5068,0.4649,0.5464,0.7295
			c0.0395,0.2656-0.0059,0.5371,0.0376,0.8008c0.0434,0.2637-0.1802,0.5693-0.1324,0.832c0.0469,0.2637-0.7695,0.6953-0.7177,0.9561
			c0.0517,0.2627,0.3769,0.4795,0.4331,0.7412c0.0556,0.2617-1.4156,0.8867-1.355,1.1465c0.0605,0.2607,1.1972,0.2871,1.2617,0.5459
			c0.0654,0.2588,1.0659,0.2881,1.1353,0.5439c0.0258,0.3985-0.9522,0.4014-0.9522,0.8008s0.0366,0.3994,0.0366,0.7988
			c0,0.3985,3.0791,0.3985,3.0791,0.7979c0,0.3994-2.6865,0.3994-2.6865,0.7978c0,0.3985,2.29,0.3985,2.29,0.7979
			s-2.9257,0.3994-2.9257,0.7978c0,0.3985,2.3486,0.3985,2.3486,0.7969c0,0.3994-1.5894,0.3994-1.5894,0.7979
			c0,0.3984,1.3838,0.3984,1.3838,0.7968c0,0.3985,1.5074,0.3985,1.5074,0.7969c0,0.3984-1.8541,0.3984-1.8541,0.7979
			c0,0.3984,0.5108,0.3984,0.5108,0.7968c0,0.3985-2.8921,0.3985-2.8921,0.7969c0,0.3984,2.4307,0.3984,2.4307,0.7969
			c0,0.3984-0.5411,0.3984-0.5411,0.7969c0,0.3984-0.9458,0.3984-0.9458,0.7978s1.6773,0.3994,1.6773,0.7979
			c0,0.3984-1.2344,0.3984-1.2344,0.7978s1.583,0.3994,1.583,0.7979c0,0.3994-1.5322,0.3994-1.5322,0.7988
			c0,0.3994-1.5137,0.3994-1.5137,0.7978c0,0.3995,3.0547,0.3995,3.0547,0.7998c0,0.3995-2.9829,0.3995-2.9829,0.7989
			c0,0.4004,0.3237,0.4004,0.3237,0.7998c0,0.4004,0.2266,0.4004,0.2266,0.8008c0,0.4004,3.0981,0.4004,3.0981,0.7998
			c0,0.4004-0.1049,0.4004-0.1049,0.7998s-3.021,0.3994-3.021,0.7998c0,0.3994,2.8686,0.3994,2.8686,0.7988
			s-0.5766,0.3994-0.5766,0.7988s-2.503,0.3994-2.503,0.7989c0,0.3984,2.8706,0.3984,2.8706,0.7978s-3.6162,0.3994-3.6162,0.7988
			c0,0.3995,4.3858,0.3995,4.3858,0.7979c0,0.3984-0.1656,0.3984-0.1656,0.7978c0,0.3995-0.8164,0.3995-0.8164,0.7989
			s-3.7514,0.3994-3.7514,0.7978c0,0.3994,4.7939,0.3994,4.7939,0.7989c0,0.3994-0.0801,0.3994-0.0801,0.7988
			c0,0.4004-4.3364,0.4004-4.3364,0.7998s4.2456,0.3994,4.2456,0.7998c0,0.4004-4.0517,0.4004-4.0517,0.7998
			c0,0.4014,0.5586,0.4014,0.5586,0.8018c0,0.4003-0.5044,0.4003-0.5044,0.8007c0,0.3994,3.9282,0.3994,3.9282,0.7998
			c0,0.3995-1.8721,0.3995-1.8721,0.7998c0,0.3995,1.0376,0.3995,1.0376,0.7989c0,0.4004-0.8755,0.4004-0.8755,0.7998
			s0.2075,0.3994,0.2075,0.7978c0,0.4004,1.9087,0.4004,1.9087,0.7998s-1.3979,0.3994-1.3979,0.7989
			c0,0.3994,0.2417,0.3994,0.2417,0.7998c0,0.3994-3.5611,0.3994-3.5611,0.7988c0,0.4004,0.6626,0.4004,0.6626,0.8008
			c0,0.4004,4.086,0.4004,4.086,0.7998c0,0.4004-0.2486,0.4004-0.2486,0.8008c0,0.4003-0.77,0.4003-0.77,0.7998
			c0,0.4004-3.956,0.4004-3.956,0.7998s0.4121,0.3994,0.4121,0.7988s0.542,0.3994,0.542,0.7978
			c0,0.3985-0.1328,0.3985-0.1328,0.7969c0,0.3985,3.5971,0.3985,3.5971,0.7969c0,0.3984-0.2202,0.3984-0.2202,0.7969
			c0,0.3974-1.6943,0.3974-1.6943,0.7949c0,0.3984,2.3877,0.3984,2.3877,0.7959c0,0.3984-0.1905,0.3984-0.1905,0.7959
			c0,0.3984-2.9624,0.3984-2.9624,0.7969c0,0.3984,2.8565,0.3984,2.8565,0.7968c0,0.3985-3.2744,0.3985-3.2744,0.7979
			s-0.7574,0.3994-0.7574,0.7978c0,0.3995,0.2999,0.3995,0.2999,0.7989c0,0.4004-0.0494,0.4004-0.0494,0.8008
			c0,0.4003,2.4751,0.4003,2.4751,0.8017s1.1929,0.4014,1.1929,0.8018c0,0.4004-3.147,0.4004-3.147,0.8008
			c0,0.4003,1.8643,0.4003,1.8643,0.8007c0,0.3994,0.9512,0.3994,0.9512,0.7989c0,0.4004-0.4458,0.4004-0.4458,0.7998
			s0.0996,0.3994,0.0996,0.7988s-3.1719,0.3994-3.1719,0.7988s2.2187,0.3994,2.2187,0.7998s-2.7817,0.4004-2.7817,0.8008
			c0,0.4004,0.2461,0.4004,0.2461,0.8018c0,0.4013,1.105,0.4013,1.105,0.8037c0,0.4004-0.8467,0.4004-0.8467,0.8017
			c0,0.4014,1.6665,0.4014,1.6665,0.8018c0,0.4004-0.1948,0.4004-0.1948,0.8008c0,0.4004-1.4292,0.4004-1.4292,0.8008
			c0,0.4003-0.3086,0.4003-0.3086,0.8017s3.6455,0.4014,3.6455,0.8027c0,0.4014-2.9839,0.4014-2.9839,0.8038
			c0,0.4013,1.8574,0.4013,1.8574,0.8027c0,0.4004,0.3741,0.4004,0.3741,0.8008c0,0.4013,1.3828,0.4013,1.3828,0.8027
			s-2.7041,0.4014-2.7041,0.8027c0,0.4024-0.2598,0.4024-0.2598,0.8038c0,0.3994,1.4795,0.3994,1.4795,0.7978
			c0,0.4004,1.5835,0.4004,1.5835,0.8018c0,0.4013-3.4243,0.4013-3.4243,0.8037c0,0.4004-0.4073,0.4004-0.4073,0.8017
			c0,0.4004,2.5728,0.4004,2.5728,0.7998c0,0.4014-0.9126,0.4014-0.9126,0.8018c0,0.4033,1.5098,0.4033,1.5098,0.8057
			c0,0.4013,0.2461,0.4013,0.2461,0.8027c0,0.4023-1.9991,0.4023-1.9991,0.8037c0,0.4033,2.7071,0.4033,2.7071,0.8066
			c0,0.4024-4.9331,0.4024-4.9331,0.8047c0,0.4014,3.1357,0.4014,3.1357,0.8037c0,0.4014-3.0352,0.4014-3.0352,0.8028
			c0,0.4043,3.1368,0.4043,3.1368,0.8076c0,0.4033-1.7032,0.4033-1.7032,0.8076c0,0.3565,2.3702,0.3994,2.9385,0.6817
			c0.0889-0.1817,0.1865-0.3448,0.3623-0.3448c0.3985,0,0.3985-0.1172,0.7974-0.1172c0.3989,0,0.3989-0.4443,0.7978-0.4443
			c0.399,0,0.399,0.4531,0.7974,0.4531c0.3989,0,0.3989,0.6797,0.7979,0.6797c0.3989,0,0.3989,1.8242,0.7978,1.8242
			s0.3989-2.2197,0.7979-2.2197c0.3989,0,0.3989,0.0459,0.7978,0.0459c0.3984,0,0.3984,0.085,0.7974,0.085
			c0.3989,0,0.3989,2.2802,0.7978,2.2802c0.3989,0,0.3989-0.247,0.7984-0.247c0.3989,0,0.3989,1.0478,0.7978,1.0478
			s0.3989-1.3535,0.7979-1.3535c0.3994,0,0.3994-2.6836,0.7983-2.6836c0.3989,0,0.3989,3.4082,0.7979,3.4082
			c0.3989,0,0.3989,0.293,0.7983,0.293c0.3994,0,0.3994-2.7344,0.7983-2.7344c0.399,0,0.399,3.1309,0.7984,3.1309
			c0.3994,0,0.3994,0.3496,0.7983,0.3496c0.3994,0,0.3994-0.9434,0.7988-0.9434c0.399,0,0.399-2.5586,0.7984-2.5586
			s0.3994,2.834,0.7988,2.834c0.3994,0,0.3994-2.9883,0.7988-2.9883c0.3995,0,0.3995,2.4375,0.7989,2.4375
			c0.3994,0,0.3994-0.7226,0.7988-0.7226c0.3994,0,0.3994-0.127,0.7993-0.127c0.3999,0,0.3999-2.1465,0.7993-2.1465
			s0.3994,3.3516,0.7993,3.3516c0.3999,0,0.3999-0.335,0.7994-0.335c0.3999,0,0.3999-2.9404,0.7998-2.9404
			s0.3999-0.832,0.7998-0.832c0.4004,0,0.4004,2.1689,0.8003,2.1689s0.3999-1.1045,0.7998-1.1045s0.3999,2.7637,0.8003,2.7637
			c0.4004,0,0.4004-3.3574,0.8003-3.3574s0.3999,2.1347,0.8002,2.1347c0.4004,0,0.4004-1.3837,0.8008-1.3837
			c0.3999,0,0.3999-0.712,0.7998-0.712c0.4004,0,0.4004-0.2597,0.8003-0.2597c0.3999,0,0.3999,1.3467,0.7998,1.3467
			c0.3999,0,0.3999-0.6436,0.7998-0.6436c0.3999,0,0.3999,0.2539,0.7998,0.2539c0.3999,0,0.3999,0.543,0.7994,0.543
			c0.3999,0,0.3999,2.1191,0.7998,2.1191c0.3994,0,0.3994,0.7813,0.7993,0.7813c0.3999,0,0.3999-4.3008,0.7993-4.3008
			c0.3994,0,0.3994,1.1543,0.7993,1.1543c0.3994,0,0.3994,3.039,0.7988,3.039c0.3999,0,0.3999-2.2832,0.7994-2.2832
			c0.3994,0,0.3994,2.6075,0.7988,2.6075c0.3994,0,0.3994-3.1924,0.7988-3.1924s0.3994-0.4121,0.7988-0.4121
			c0.3995,0,0.3995,0.3545,0.7989,0.3545c0.3994,0,0.3994-0.6348,0.7988-0.6348s0.3994,3.6631,0.7988,3.6631
			c0.3994,0,0.3994-1.0205,0.7984-1.0205c0.3994,0,0.3994,1.0224,0.7988,1.0224c0.3989,0,0.3989-2.8213,0.7983-2.8213
			c0.3994,0,0.3994-1.8447,0.7989-1.8447c0.3994,0,0.3994,4.4561,0.7988,4.4561s0.3994-3.3301,0.7983-3.3301
			c0.399,0,0.399,1.75,0.7984,1.75c0.3994,0,0.3994-1.8301,0.7988-1.8301s0.3994-0.0722,0.7983-0.0722
			c0.399,0,0.399-0.4278,0.7984-0.4278c0.3994,0,0.3994,2.1192,0.7988,2.1192s0.3994,1.5263,0.7988,1.5263
			c0.3994,0,0.3994-3.8232,0.7984-3.8232c0.3994,0,0.3994,4.0566,0.7988,4.0566s0.3994-2.6006,0.7988-2.6006
			c0.3994,0,0.3994,1.9434,0.7989,1.9434c0.3994,0,0.3994-2.0986,0.7988-2.0986c0.3999,0,0.3999,3.2754,0.7993,3.2754
			c0.3994,0,0.3994-3.5704,0.7988-3.5704s0.3994-0.1689,0.7989-0.1689c0.3994,0,0.3994,3.3164,0.7993,3.3164
			c0.3999,0,0.3999-1.3926,0.7993-1.3926s0.3994,1.0498,0.7993,1.0498c0.3999,0,0.3999-4.0644,0.7998-4.0644
			c0.3999,0,0.3999,1.5713,0.7993,1.5713c0.3999,0,0.3999-0.2217,0.7998-0.2217c0.4004,0,0.4004-1.1035,0.8003-1.1035
			c0.3999,0,0.3999,1.2715,0.7998,1.2715c0.3999,0,0.3999-1.0909,0.8003-1.0909c0.4004,0,0.4004,3.7452,0.8003,3.7452
			s0.3999-3.3975,0.8003-3.3975c0.4004,0,0.4004,0.873,0.8008,0.873s0.4004-1.4951,0.8008-1.4951s0.4004,0.9024,0.8003,0.9024
			s0.3999,3.1963,0.8003,3.1963c0.3999,0,0.3999-4.334,0.7998-4.334c0.3994,0,0.3994,0.2099,0.7993,0.2099
			c0.3999,0,0.3999,1.6612,0.7993,1.6612s0.3994-0.3321,0.7993-0.3321c0.3994,0,0.3994-0.5761,0.7988-0.5761
			c0.399,0,0.399,0.6543,0.7984,0.6543c0.3994,0,0.3994,0.7851,0.7983,0.7851c0.3989,0,0.3989,1.3067,0.7979,1.3067
			c0.3989,0,0.3989-0.9883,0.7978-0.9883c0.3989,0,0.3989-0.6211,0.7979-0.6211c0.3989,0,0.3989-1.3096,0.7973-1.3096
			c0.3985,0,0.3985,1.4844,0.7974,1.4844c0.3984,0,0.3984,2.209,0.7969,2.209c0.3984,0,0.3984-3.5059,0.7968-3.5059
			c0.398,0,0.398,2.1289,0.7964,2.1289c0.3985,0,0.3985-0.6318,0.7969-0.6318c0.398,0,0.398-0.3877,0.7959-0.3877
			c0.3984,0,0.3984,2.6777,0.7964,2.6777c0.3979,0,0.3979-2.6865,0.7959-2.6865c0.3979,0,0.3979,1.1865,0.7959,1.1865
			c0.3979,0,0.3979,0.2393,0.7959,0.2393c0.3979,0,0.3979-3.4737,0.7959-3.4737c0.3979,0,0.3979,4.6143,0.7954,4.6143
			c0.3979,0,0.3979-4.3271,0.7959-4.3271c0.3975,0,0.3975,2.6455,0.7954,2.6455c0.398,0,0.398,1.5205,0.7954,1.5205
			c0.3975,0,0.3975-4.0743,0.7949-4.0743c0.3975,0,0.3975,0.1934,0.7955,0.1934c0.3979,0,0.3979,0.6494,0.7954,0.6494
			c0.3974,0,0.3974,0.5459,0.7949,0.5459c0.3974,0,0.3974,0.8731,0.7954,0.8731c0.3979,0,0.3979,1.5693,0.7954,1.5693
			s0.3975-3.5176,0.7954-3.5176c0.3975,0,0.3975,1.5811,0.7949,1.5811c0.398,0,0.398,1.2168,0.7954,1.2168
			c0.3975,0,0.3975-0.8633,0.7955-0.8633c0.3979,0,0.3979-0.6709,0.7954-0.6709c0.3979,0,0.3979,2.7725,0.7959,2.7725
			c0.3974,0,0.3974-4.8145,0.7954-4.8145c0.3979,0,0.3979,4.3164,0.7954,4.3164c0.3979,0,0.3979-2.7558,0.7959-2.7558
			c0.3979,0,0.3979-1.1055,0.7959-1.1055c0.3979,0,0.3979,2.6894,0.7959,2.6894c0.3979,0,0.3979-2.6845,0.7959-2.6845
			c0.3984,0,0.3984,1.5039,0.7964,1.5039c0.3979,0,0.3979-0.4991,0.7964-0.4991c0.3984,0,0.3984-0.5507,0.7968-0.5507
			c0.3985,0,0.3985,3.1211,0.7969,3.1211c0.3984,0,0.3984-0.0098,0.7969-0.0098c0.3984,0,0.3984-1.1357,0.7973-1.1357
			c0.399,0,0.399,0.1982,0.7974,0.1982c0.3989,0,0.3989-0.2959,0.7979-0.2959c0.3989,0,0.3989-0.5811,0.7978-0.5811
			c0.3994,0,0.3994-0.7343,0.7983-0.7343c0.399,0,0.399,1.4082,0.7984,1.4082c0.3994,0,0.3994-2.7637,0.7988-2.7637
			c0.3994,0,0.3994,3.0859,0.7993,3.0859c0.3999,0,0.3999-2.5908,0.7993-2.5908c0.3999,0,0.3999,3.6983,0.7999,3.6983
			c0.3999,0,0.3999-3.7803,0.7998-3.7803c0.4003,0,0.4003,3.0185,0.8007,3.0185c0.4004,0,0.4004,0.2188,0.8008,0.2188
			s0.4004,1,0.8013,1s0.4009-3.2442,0.8017-3.2442c0.4009,0,0.4009-0.2382,0.8023-0.2382c0.4009,0,0.4009-0.0225,0.8018-0.0225
			c0.4008,0,0.4008,0.21,0.8017,0.21c0.4009,0,0.4009-0.9795,0.8018-0.9795c0.4004,0,0.4004,2.4834,0.8007,2.4834
			c0.4004,0,0.4004,0.2968,0.8008,0.2968s0.4004-1.2334,0.8008-1.2334c0.3999,0,0.3999,0.6211,0.7998,0.6211
			c0.4004,0,0.4004-2.5673,0.8003-2.5673s0.3999,2.6933,0.7993,2.6933c0.3999,0,0.3999-0.9922,0.7998-0.9922
			c0.3994,0,0.3994,1.5743,0.7993,1.5743c0.3995,0,0.3995-1.0909,0.7989-1.0909s0.3994-0.1758,0.7988-0.1758
			s0.3994,1.9249,0.7988,1.9249s0.3994-2.6758,0.7989-2.6758c0.3989,0,0.3989-0.8223,0.7983-0.8223s0.3994,1.2656,0.7988,1.2656
			s0.3994-1.4287,0.7984-1.4287c0.3989,0,0.3989,0.8252,0.7983,0.8252c0.3994,0,0.3994,2.1778,0.7983,2.1778
			c0.399,0,0.399,1.5898,0.7984,1.5898c0.3989,0,0.3989-2.3623,0.7978-2.3623c0.3995,0,0.3995-1.5723,0.7989-1.5723
			s0.3994,2.8526,0.7983,2.8526c0.3989,0,0.3989-2.6133,0.7983-2.6133c0.3995,0,0.3995,1.4922,0.7989,1.4922
			s0.3994,1.6836,0.7983,1.6836c0.3999,0,0.3999-3.9815,0.7993-3.9815s0.3994,3.3643,0.7989,3.3643
			c0.3994,0,0.3994-0.5469,0.7993-0.5469c0.3999,0,0.3999-1.1035,0.7993-1.1035c0.3999,0,0.3999,2.7666,0.7998,2.7666
			s0.3999-2.4658,0.7998-2.4658c0.4004,0,0.4004,1.625,0.8003,1.625c0.4004,0,0.4004-1.1905,0.8008-1.1905
			c0.4004,0,0.4004,1.4991,0.8008,1.4991c0.4008,0,0.4008-2.0381,0.8012-2.0381c0.4009,0,0.4009,0.3945,0.8018,0.3945
			s0.4009,0.5195,0.8017,0.5195c0.4014,0,0.4014-1.1064,0.8028-1.1064c0.4013,0,0.4013-0.8154,0.8032-0.8154
			c0.4014,0,0.4014-1.0147,0.8027-1.0147c0.4009,0,0.4009,1.2949,0.8023,1.2949c0.4013,0,0.4013,1.7041,0.8027,1.7041
			c0.4009,0,0.4009,1.0987,0.8018,1.0987c0.4004,0,0.4004-0.7881,0.8012-0.7881c0.4009,0,0.4009-2.5225,0.8013-2.5225
			c0.4004,0,0.4004,3.5821,0.8008,3.5821c0.4004,0,0.4004-0.2832,0.8008-0.2832s0.4004-3.0088,0.8008-3.0088
			c0.4003,0,0.4003-0.6875,0.8002-0.6875s0.3999,0.1767,0.8003,0.1767c0.4004,0,0.4004,0.9844,0.8003,0.9844
			s0.3999-1.1152,0.8003-1.1152c0.4004,0,0.4004-0.2344,0.8003-0.2344s0.3999,0.3144,0.8003,0.3144
			c0.4004,0,0.4004,2.795,0.8003,2.795c0.3999,0,0.3999-2.8164,0.8003-2.8164s0.4004,3.9316,0.8008,3.9316
			c0.4004,0,0.4004-3.9238,0.8008-3.9238c0.4003,0,0.4003,1.3105,0.8007,1.3105c0.4004,0,0.4004,2.6074,0.8013,2.6074
			c0.4009,0,0.4009-1.4287,0.8013-1.4287c0.4013,0,0.4013,0.8701,0.8022,0.8701c0.4009,0,0.4009-2.9834,0.8023-2.9834
			c0.4013,0,0.4013,1.5039,0.8027,1.5039c0.4014,0,0.4014-1.374,0.8032-1.374c0.4019,0,0.4019,2.2364,0.8037,2.2364
			c0.4019,0,0.4019,1.1357,0.8033,1.1357c0.4013,0,0.4013-2.8623,0.8032-2.8623c0.4009,0,0.4009-0.2031,0.8022-0.2031
			c0.4014,0,0.4014-0.9532,0.8023-0.9532c0.4009,0,0.4009,2.6504,0.8017,2.6504c0.4009,0,0.4009-3.0703,0.8018-3.0703
			c0.4009,0,0.4009,4.3281,0.8017,4.3281c0.4009,0,0.4009,0.1338,0.8013,0.1338c0.4004,0,0.4004-2.5058,0.8013-2.5058
			c0.4009,0,0.4009-0.7422,0.8017-0.7422c0.4009,0,0.4009-0.4756,0.8013-0.4756c0.4009,0,0.4009,2.5869,0.8018,2.5869
			c0.4013,0,0.4013-0.1826,0.8022-0.1826c0.4009,0,0.4009-1.874,0.8023-1.874c0.4013,0,0.4013,0.6494,0.8022,0.6494
			c0.4019,0,0.4019-1.667,0.8032-1.667c0.4019,0,0.4019,0.6064,0.8037,0.6064c0.4019,0,0.4019,3.7969,0.8038,3.7969
			c0.4018,0,0.4018-2.6523,0.8037-2.6523c0.4013,0,0.4013,2.042,0.8032,2.042c0.4018,0,0.4018,0.4736,0.8032,0.4736
			s0.4014-3.2539,0.8023-3.2539c0.4013,0,0.4013,1.0391,0.8027,1.0391c0.4009,0,0.4009-2.462,0.8022-2.462
			c0.4014,0,0.4014,1.1621,0.8023,1.1621c0.4009,0,0.4009-0.2011,0.8022-0.2011c0.4014,0,0.4014,2.1338,0.8028,2.1338
			c0.4013,0,0.4013-2.3526,0.8027-2.3526s0.4014,1.8194,0.8027,1.8194c0.4019,0,0.4019-0.959,0.8037-0.959
			c0.4024,0,0.4024-0.7725,0.8042-0.7725c0.4019,0,0.4019,3.6143,0.8038,3.6143c0.4013,0,0.4013-4.3711,0.8027-4.3711
			c0.4009,0,0.4009,4.3584,0.8017,4.3584c0.4009,0,0.4009-0.083,0.8013-0.083c0.4004,0,0.4004-1.5303,0.8003-1.5303
			s0.3999-2.2832,0.7998-2.2832s0.3999,0.3955,0.7993,0.3955s0.3994-1.0322,0.7993-1.0322c0.4,0,0.4,2.7422,0.7994,2.7422
			s0.3994-1.0498,0.7993-1.0498s0.3999,3.0742,0.7993,3.0742c0.3999,0,0.3999,0.04,0.7998,0.04
			c0.4004,0,0.4004-1.1826,0.8008-1.1826s0.4004-2.2891,0.8013-2.2891c0.4008,0,0.4008,2.7481,0.8022,2.7481
			c0.4019,0,0.4019,0.8613,0.8037,0.8613c0.4024,0,0.4024-0.333,0.8052-0.333s0.4028-0.8018,0.8052-0.8018
			c0.4023,0,0.4023-0.9707,0.8042-0.9707c0.4018,0,0.4018-1.9941,0.8032-1.9941s0.4014,2.6162,0.8027,2.6162
			c0.4009,0,0.4009-1.9248,0.8018-1.9248c0.4013,0,0.4013-0.7783,0.8022-0.7783c0.4009,0,0.4009,1.7998,0.8023,1.7998
			c0.4013,0,0.4013-2.0938,0.8032-2.0938c0.4018,0,0.4018,0.5577,0.8037,0.5577c0.4028,0,0.4028,3.7119,0.8052,3.7119
			c0.4033,0,0.4033-3.6201,0.8066-3.6201c0.4024,0,0.4024-0.1768,0.8052-0.1768c0.4018,0,0.4018,0.8291,0.8042,0.8291
			c0.4023,0,0.4023,1.6367,0.8042,1.6367c0.4018,0,0.4018-3.0508,0.8042-3.0508c0.4023,0,0.4023,2.6612,0.8047,2.6612
			c0.4028,0,0.4028-1.835,0.8056-1.835c0.4034,0,0.4034,0.1983,0.8067,0.1983c0.4033,0,0.4033,2.9746,0.8056,2.9746
			c0.4024,0,0.4024-4.1543,0.8047-4.1543c0.4034,0,0.4034-0.0762,0.8067-0.0762c0.4023,0,0.4023-0.0938,0.8066-0.0938
			c0.4024,0,0.4024,4.4229,0.8067,4.4229c0.4003,0,0.4003-4.0137,0.8007-4.0137c0.4024,0,0.4024,0.8994,0.8047,0.8994
			c0.4043,0,0.4043-0.3134,0.8076-0.3134c0.4024,0,0.4024,1.2763,0.8047,1.2763c0.4014,0,0.4014-1.9453,0.8037-1.9453
			c0.4024,0,0.4024,0.2617,0.8047,0.2617c0.4043,0,0.4043-0.3535,0.8086-0.3535c0.4033,0,0.4033,1.6446,0.8067,1.6446
			c0.4033,0,0.4033,0.2597,0.8066,0.2597c0.4053,0,0.4053,1.1836,0.8096,1.1836c0.4043,0,0.4043-0.3691,0.8076-0.3691
			c0.4043,0,0.4043-0.9014,0.8086-0.9014c0.4023,0,0.4023-0.2217,0.8056-0.2217c0.4053,0,0.4053-1.1631,0.8106-1.1631
			s0.4053,1.7559,0.8115,1.7559c0.4072,0,0.4072,0.5049,0.8145,0.5049c0.4062,0-0.6524-1.4043-0.3604-1.6875
			c0.2842-0.2774,2.3067,0.8056,2.3067,0.4092c0-0.3975-0.1006-0.3975-0.1006-0.794s-0.9824-0.3965-0.9824-0.793
			c0-0.3964,2.1425-0.3964,2.1425-0.7939c0-0.3975-1.2988-0.3975-1.2988-0.7939c0-0.3975-0.3457-0.3975-0.3457-0.795
			c0-0.3965-1.1445-0.3965-1.1445-0.7939c0-0.3975-0.4385-0.3975-0.4385-0.794c0-0.3974,0.8613-0.3974,0.8613-0.7949
			c0-0.3965,1.2793-0.3965,1.2793-0.7939c0-0.3975-3.4443-0.3975-3.4443-0.7949c0-0.3975,3.1094-0.3975,3.1094-0.795
			c0-0.3974,0.207-0.3974,0.207-0.7949c0-0.3975-0.7695-0.3975-0.7695-0.7959c0-0.3975,0.1543-0.3975,0.1543-0.7949
			c0-0.3984-0.2334-0.3984-0.2334-0.7969c0-0.3984-0.5967-0.3984-0.5967-0.7959c0-0.3984,1.459-0.3984,1.459-0.7969
			c0-0.3984,1.0683-0.3984,1.0683-0.7968c0-0.3994-0.8584-0.3994-0.8584-0.7979c0-0.3984-0.1738-0.3984-0.1738-0.7978
			c0-0.3995,0.9482-0.3995,0.9482-0.7989c0-0.3994,0.2871-0.3994,0.2871-0.7978c0-0.3994-0.6503-0.3994-0.6503-0.7988
			c0-0.3985-3.5303-0.3985-3.5303-0.7969c0-0.3985,3.6142-0.3985,3.6142-0.7979c0-0.3984-1.3769-0.3984-1.3769-0.7968
			c0-0.3985-0.5352-0.3985-0.5352-0.7969c0-0.3975,1.5821-0.3975,1.5821-0.7959c0-0.3985-0.3975-0.3985-0.3975-0.7959
			c0-0.3985-2.8838-0.3985-2.8838-0.7959c0-0.3985,1.1348-0.3985,1.1348-0.7959c0-0.3975,1.7861-0.3975,1.7861-0.7959
			c0-0.3985-2.7432-0.3985-2.7432-0.7959c0-0.3975,3.1543-0.3975,3.1543-0.7959c0-0.3975-2.5527-0.3975-2.5527-0.7949
			c0-0.3985,0.7285-0.3985,0.7285-0.7959c0-0.3975,1.7539-0.3975,1.7539-0.7959c0-0.3985-2.5019-0.3985-2.5019-0.7959
			c0-0.3975,2.6982-0.3975,2.6982-0.7959c0-0.3985-3.5322-0.3985-3.5322-0.7959c0-0.3985,2.1494-0.3985,2.1494-0.7959
			c0-0.3985-0.8457-0.3985-0.8457-0.7969c0-0.3984,0.0166-0.3984,0.0166-0.7969c0-0.3994,0.2295-0.3994,0.2295-0.7978
			c0-0.3994,0.249-0.3994,0.249-0.7979c0-0.3994,1.5821-0.3994,1.5821-0.7988c0-0.3984-3.2422-0.3984-3.2422-0.7988
			c0-0.3994,1.248-0.3994,1.248-0.7989c0-0.3994-1.3232-0.3994-1.3232-0.7988c0-0.3984,2.9336-0.3984,2.9336-0.7978
			c0-0.3995-0.9746-0.3995-0.9746-0.7979c0-0.3994-0.5147-0.3994-0.5147-0.7978c0-0.3985,1.752-0.3985,1.752-0.7979
			c0-0.3984-0.252-0.3984-0.252-0.7969c0-0.3974-0.6758-0.3974-0.6758-0.7959c0-0.3984,0.8369-0.3984,0.8369-0.7978
			c0-0.3975-2.9922-0.3975-2.9922-0.7959c0-0.3985,0.2481-0.3985,0.2481-0.7969c0-0.3984,0.6758-0.3984,0.6758-0.7978
			c0-0.3985,0.7158-0.3985,0.7158-0.7969c0-0.3985,1.2646-0.3985,1.2646-0.7969c0-0.3984-2.7187-0.3984-2.7187-0.7978
			c0-0.3995-0.3701-0.3995-0.3701-0.7979c0-0.3994,2.0498-0.3994,2.0498-0.7988c0-0.3994-2.2588-0.3994-2.2588-0.7989
			c0-0.4003,2.5234-0.4003,2.5234-0.7998c0-0.3994,1.9356-0.3994,1.9356-0.7998c0-0.3994-2.3145-0.3994-2.3145-0.7988
			s-0.4394-0.3994-0.4394-0.7988c0-0.3985,1.2011-0.3985,1.2011-0.7979s-1.6269-0.3994-1.6269-0.7978
			c0-0.3985-1.4434-0.3985-1.4434-0.7979s0.503-0.3994,0.503-0.7978c0-0.3985-0.3799-0.3985-0.3799-0.7969
			c0-0.3994-0.2383-0.3994-0.2383-0.7988c0-0.3985,2.2812-0.3985,2.2812-0.7979s-2.1035-0.3994-2.1035-0.7988
			c0-0.3994,4.5752-0.3994,4.5752-0.7979c0-0.4004-1.9765-0.4004-1.9765-0.7998s-1.2881-0.3994-1.2881-0.7988
			c0-0.3994-0.0781-0.3994-0.0781-0.7978c0-0.3995,0.9199-0.3995,0.9199-0.7979c0-0.3984-2.1895-0.3984-2.1895-0.7969
			c0-0.3974,2.9502-0.3974,2.9502-0.7959c0-0.3974,0.3057-0.3974,0.3057-0.7949c0-0.3984-1.4238-0.3984-1.4238-0.7949
			c0-0.3975,0.6816-0.3975,0.6816-0.7949c0-0.3975,0.4102-0.3975,0.4102-0.795c0-0.3974-0.7256-0.3974-0.7256-0.7949
			c0-0.3974-1.8155-0.3974-1.8155-0.7949s0.5186-0.3975,0.5186-0.7949c0-0.3985,1.3682-0.3985,1.3682-0.7959
			c0-0.3985-1.7911-0.3985-1.7911-0.7979c0-0.3984,2.2246-0.3984,2.2246-0.7968c0-0.3995-1.6093-0.3995-1.6093-0.7989
			c0-0.4004,3.7715-0.4004,3.7715-0.8008C256.8703,149.9621,253.2414,149.9621,253.2414,149.5617z M15.4612,120.0734
			c-0.4141,0-0.4141-0.8438-0.8281-0.8438c-0.2764,0-0.3697-1.374-0.5225-2.3017c0.3618,0.1015,1.0776,0.1924,1.6958,0.2861
			C15.5734,117.7667,15.8346,120.0734,15.4612,120.0734z M16.4293,117.3195c0.2749,0.0566,0.4585,0.1162,0.4605,0.1806
			C16.8937,117.6261,16.6666,117.4787,16.4293,117.3195z M64.9308,112.3761c-0.0508,0.2637,0.1436,0.5762,0.0918,0.8399
			c-0.0508,0.2636,0.2646,0.5976,0.2129,0.8613c-0.0508,0.2637-1.6782-0.1055-1.7295,0.1582
			c-0.0913-0.25-0.9912,0.1484-1.0855-0.1016c-0.0937-0.248-0.4199-0.3984-0.5166-0.6474
			c-0.0961-0.2481,3.1753-1.8301,3.0767-2.0772c-0.0986-0.248-3.7129,0.9219-3.814,0.6758c-0.0844-0.2041,2.148-1.3809,2.8511-1.915
			c0.7608,0.2763,1.4873,0.5449,1.4629,0.6709c-0.0498,0.2636,1.1094,0.7607,1.0586,1.0234
			C66.4884,112.1281,64.9821,112.1124,64.9308,112.3761z M78.5719,101.1173c-0.0405-0.1992,0.4448-0.5058,0.6528-0.7558
			c0.5674,0.2871,1.1294,0.5732,1.0948,0.7011c-0.0122,0.045,0.0068,0.0987,0.0366,0.1553
			C79.5426,101.2287,78.6022,101.2658,78.5719,101.1173z M79.5617,104.9035c-0.0132-0.0664,0.1128-0.3164,0.3061-0.6534
			C79.7072,104.5714,79.5827,104.8283,79.5617,104.9035z M91.3224,117.0617c-0.0264-0.1758,1.2134-0.542,2.0254-0.8448
			c0.0078,0.042,0.0234,0.0869,0.0146,0.1241c-0.0258,0.1064,0.3907,0.3183,0.8775,0.5468
			c-0.0347,0.0938-0.064,0.2002-0.0864,0.3174C93.1134,117.172,91.3502,117.2482,91.3224,117.0617z M93.6652,118.5226
			c-0.0132-0.0889,0.1328-0.2256,0.3242-0.376C93.9279,118.3898,93.8395,118.5607,93.6652,118.5226z M95.3087,117.3996
			c0.2349,0.1259,0.3907,0.2324,0.375,0.2988C95.6618,117.7921,95.5032,117.629,95.3087,117.3996z M105.0333,113.9874
			c0.125,0.0879,0.2129,0.167,0.1988,0.2188c-0.0371,0.1348-0.5176,0.1387-0.9883,0.1465
			C104.5534,114.2218,104.8434,114.0939,105.0333,113.9874z M102.7922,115.1066c-0.0166-0.083,0.2285-0.2197,0.5699-0.375
			c0.1142,0.2305,0.3706,0.4971,0.333,0.6875C103.3039,115.3331,102.8239,115.2648,102.7922,115.1066z M104.317,117.1378
			c0.0176,0.1299,0.0264,0.2061,0.0113,0.1289c-0.0108-0.0537-0.0806-0.0966-0.1724-0.1347c-0.1421,0-0.2373,0.0156-0.2578,0.0556
			c0.0107-0.0273,0.0273-0.0683,0.0493-0.125c-0.394-0.1035-0.9546-0.1748-0.9893-0.3486
			c-0.0439-0.2246,0.9209-0.6484,1.1753-0.9326c0.9014,0.5058,2.8741,1.3545,2.8096,1.5517
			C106.8782,117.5343,105.1398,117.1857,104.317,117.1378z M115.8878,114.7511c-0.0444-0.1435,0.4102-0.4101,0.794-0.6592
			c0.1094,0.0713,0.1758,0.1319,0.165,0.1719C116.7775,114.5226,115.9567,114.4923,115.8878,114.7511z"/>
		<path d="M104.214,116.3703c0.001-0.003,0.0029-0.0069,0.0039-0.0088C104.2106,116.3253,104.2106,116.3371,104.214,116.3703z"/>
		<path d="M110.0758,100.1681c0.0445-0.2685,0.6504-0.4385,0.6944-0.7041c0.0151-0.0918-0.3238-0.2432-0.7705-0.4121
			c-0.8516,0.5986-1.6666,1.1777-1.6084,1.2891c0.1005,0.1933,1.1157-0.1016,1.5141-0.0655
			C109.9982,100.2453,110.0685,100.2121,110.0758,100.1681z"/>
		<path d="M138.111,97.3292c-0.0064,0.0723,0.126,0.1563,0.3149,0.2452C138.2511,97.3761,138.1178,97.2472,138.111,97.3292z"/>
		<path d="M128.2619,74.2667c0.0498-0.1113,0.0825-0.205,0.0664-0.25C128.3092,74.0695,128.2863,74.1613,128.2619,74.2667z"/>
		<path d="M127.7942,76.3273c0.0898-0.2539,0.0947-0.5371,0.1846-0.791c0.0712-0.2012,0.1909-0.8711,0.2832-1.2696
			c-0.2242,0.5-0.9639,1.5166-0.8936,1.7227c0.0859,0.2519,0.148,0.4873,0.23,0.7441c0.0185,0.0586,0.2192,0.0606,0.5112,0.0342
			C127.9132,76.589,127.7594,76.4249,127.7942,76.3273z"/>
		<path d="M111.8372,97.6027c-0.1265-0.2295-0.8765-0.1573-1.0079-0.3819c-0.1323-0.2255-0.5122-0.3466-0.6499-0.5664
			c-0.1386-0.2216-1.0659,1.252-1.2104,1.0362c-0.0479,0.2636,2.0005-0.0967,1.9536,0.1718
			c-0.0464,0.2647-2.9614,0.0313-3.0073,0.3008c-0.0293,0.1748,1.229,0.5645,2.0845,0.8887
			C110.9293,98.3986,111.903,97.7218,111.8372,97.6027z"/>
		<path d="M102.526,103.421c-0.063-0.1797-1.8027,0.2452-2.8525,0.4229c0.1899,0.206,0.375,0.4101,0.331,0.5303
			c-0.0903,0.2441-2.0927-0.2051-2.1811,0.041c-0.0552,0.1533,0.6694,0.582,1.2016,0.9433
			C99.6017,104.9113,102.6041,103.6447,102.526,103.421z"/>
		<path d="M98.8913,103.8761c0.0273,0.0733,0.3471,0.041,0.7822-0.0322c-0.1607-0.1748-0.3179-0.3477-0.3501-0.4746
			C99.0656,103.5802,98.8532,103.7746,98.8913,103.8761z"/>
		<path d="M100.1262,102.5646c-0.0996-0.249-0.1636-1.0264-0.2676-1.2695c-0.0971,0.2421-2.2885,0.1894-2.3833,0.4326
			c-0.0947,0.2441,1.9361,1.3135,1.8433,1.5576c-0.0093,0.0244-0.0024,0.0537,0.0049,0.084
			C99.7033,103.0587,100.1842,102.7101,100.1262,102.5646z"/>
		<path d="M139.4977,103.9523c-0.0215-0.2695,1.2329-0.624,1.2158-0.8926c-0.0176-0.2715-1.8852-0.4355-1.8974-0.7051
			c-0.0127-0.2715,2.1215-0.6152,2.1137-0.8857c-0.0073-0.2705-0.6211-0.5088-0.623-0.7783c-0.001-0.127-0.211-0.253-0.4326-0.378
			c-0.7066,0.0323-1.4717,0.0557-1.4971,0.1993c-0.0459,0.2646-0.6524,0.4052-0.7036,0.6699
			c-0.0513,0.2646-0.5767,0.4013-0.6328,0.664c-0.0562,0.2637,0.705,0.6807,0.644,0.9424
			c-0.0615,0.2637,0.0801,0.5567,0.0142,0.8174c-0.0655,0.2598,0.5478,0.6865,0.4868,0.9473
			C138.7921,104.3361,139.5104,104.1085,139.4977,103.9523z"/>
		<path d="M139.6286,99.0841c0.018-0.1328-0.0645-0.2783-0.148-0.4238c0.001,0.0127,0.0024,0.0342,0.0039,0.043
			c-0.0205,0.0488-0.1216-0.0391-0.2646-0.1963c-0.8379,0.1562-2.191,0.292-2.1978,0.4795
			c-0.0093,0.2695,2.3379,0.6259,2.3345,0.8974c-0.002,0.1436,0.2656,0.2862,0.5176,0.4287
			c0.6035-0.0283,1.164-0.0634,1.1831-0.1855C141.0983,99.8605,139.5924,99.3517,139.6286,99.0841z"/>
		<path d="M138.1857,104.5529c-0.0801,0.0283-0.1553,0.0566-0.2295,0.0849c0.1226-0.0127,0.2173-0.0341,0.2295-0.0791
			C138.1862,104.5568,138.1852,104.5548,138.1857,104.5529z"/>
		<path d="M150.1417,101.1994c-0.0747-0.253,1.6226-1.0606,1.542-1.3125c-0.0805-0.251,0.8218-0.8721,0.7354-1.1221
			c-0.086-0.249-1.145-0.1963-1.2373-0.4444c-0.0923-0.247-0.4512-0.4218-0.5493-0.6669c-0.0982-0.2452-1.1582,0.1718-1.2627-0.0723
			c-0.0723,0.2539,2.2456,0.9023,2.1753,1.1572c-0.0704,0.2529-1.3379,0.166-1.4073,0.4209
			c-0.0683,0.2549-2.7812-0.1904-2.8481,0.0654c-0.0664,0.2549,2.8516,1.2774,2.7866,1.5332
			c-0.0644,0.2559-0.3159,0.4561-0.3794,0.7129c-0.063,0.2559-0.6597,0.375-0.7212,0.6319
			c-0.0024,0.0097-0.0146,0.0176-0.0244,0.0254C149.3522,101.8175,150.1979,101.3888,150.1417,101.1994z"/>
		<path d="M139.4806,98.6603c-0.0044-0.0469-0.0088-0.1152-0.0137-0.2041c0.2383-0.0537,0.3985-0.1113,0.4024-0.1738
			c0.0049-0.086-0.1817-0.1875-0.4268-0.293c-0.0176-0.3555-0.0351-0.6807-0.0473-0.5566c-0.0166,0.1728-0.0303,0.3447-0.044,0.5166
			c-0.3022-0.125-0.667-0.2549-0.9253-0.375c0.2412,0.2724,0.5635,0.6796,0.794,0.9326c0.0576-0.0098,0.1118-0.0215,0.164-0.0323
			C139.4122,98.5363,139.445,98.5978,139.4806,98.6603z"/>
	</g>
</g>
</svg>
