<?xml version="1.0" encoding="UTF-8"?>
<!DOCTYPE svg PUBLIC "-//W3C//DTD SVG 1.1//EN" "http://www.w3.org/Graphics/SVG/1.1/DTD/svg11.dtd">
<!-- Creator: CorelDRAW -->
<svg xmlns="http://www.w3.org/2000/svg" xml:space="preserve" width="512px" height="512px" version="1.1" style="shape-rendering:geometricPrecision; text-rendering:geometricPrecision; image-rendering:optimizeQuality; fill-rule:evenodd; clip-rule:evenodd"
viewBox="0 0 512 512"
 xmlns:xlink="http://www.w3.org/1999/xlink">
 <defs>
  <style type="text/css">
   <![CDATA[
    .fil0 {fill:black}
   ]]>
  </style>
 </defs>
 <g id="Layer_x0020_1">
  <metadata id="CorelCorpID_0Corel-Layer"/>
  <path class="fil0" d="M442 512l-36 0 0 -39c0,-4 -3,-8 -7,-8l-44 0c-4,0 -7,4 -7,8l0 39 -8 0 0 -39c0,-4 -3,-8 -7,-8l-43 0c-4,0 -8,4 -8,8l0 39 -7 0 0 -39c0,-4 -3,-8 -7,-8l-44 0c-4,0 -8,4 -8,8l0 39 -34 0c-30,0 -54,-24 -54,-54 0,-29 24,-53 54,-53l35 0 0 38c0,4 4,7 8,7l43 0c4,0 7,-3 8,-7l0 -38 7 0 0 38c0,4 3,7 7,7l43 0c5,0 7,-3 8,-7l0 -38 7 0 0 38c0,4 3,7 7,7l44 0c4,0 7,-3 7,-7l0 -38 36 0c29,0 53,24 53,53 0,30 -24,54 -53,54zm-258 -23c-16,0 -30,-14 -30,-30 0,-16 14,-29 30,-29 16,0 29,13 29,29 0,17 -13,30 -29,30zm0 -44c-8,0 -15,7 -15,15 0,8 7,15 15,15 8,0 15,-7 15,-15 0,-8 -7,-15 -15,-15zm256 42c-17,0 -30,-14 -30,-30 0,-16 13,-29 30,-29 16,0 29,13 29,29 0,16 -13,30 -29,30zm0 -45c-9,0 -15,7 -15,15 0,8 6,15 15,15 7,0 14,-7 14,-15 0,-8 -6,-15 -14,-15zm-208 -37l29 0 0 31 -29 0 0 -31zm66 0l28 0 0 31 -28 0 0 -31zm65 0l28 0 0 31 -28 0 0 -31zm-103 107l-29 0 0 -32 29 0 0 32zm66 0l-29 0 0 -32 29 0 0 32zm65 0l-28 0 0 -32 28 0 0 32z"/>
  <path class="fil0" d="M224 391l-38 -67 104 0c4,0 8,-3 8,-8l0 -115 24 0c4,0 7,3 7,8l0 53 107 0c4,0 8,3 8,7l0 122c-1,0 -2,0 -2,0l-218 0zm-44 -82c0,-1 0,-2 1,-3l65 -102c1,-2 4,-3 6,-3l31 0 0 108 -103 0zm122 42l-31 0c-5,0 -8,-3 -8,-7 0,-5 3,-8 8,-8l31 0c4,0 7,3 7,8 0,4 -3,7 -7,7z"/>
  <path class="fil0" d="M417 165c-27,0 -49,-22 -49,-49 0,-28 22,-50 49,-50 28,0 50,22 50,50 0,27 -23,49 -50,49zm0 -27c-12,0 -22,-10 -22,-22 0,-13 10,-23 22,-23 13,0 23,10 23,23 0,12 -10,22 -23,22zm0 -30c-5,0 -8,3 -8,8 0,4 4,8 8,8 5,0 8,-4 8,-8 0,-5 -3,-8 -8,-8z"/>
  <path class="fil0" d="M304 187l52 -53c4,13 12,24 23,32l-36 38c-3,-10 -11,-17 -21,-17l-18 0z"/>
  <path class="fil0" d="M354 120l-183 -22 -33 -48 227 30c-7,10 -11,23 -11,36 0,1 0,2 0,4z"/>
  <path class="fil0" d="M191 265l-29 -41 55 0 -26 41zm-40 -56l-17 -24 81 0 14 20 -3 4 -75 0zm-27 -39l-17 -25 81 1 17 24 -81 0zm-28 -39l-17 -25 81 1 18 24 -82 0zm-27 -39l-17 -24 81 0 17 24 -81 0zm-28 -39l0 -1c-11,-14 -7,-35 8,-46 14,-10 35,-7 46,8l27 39 -81 0z"/>
  <path class="fil0" d="M360 512l-319 0c-4,0 -8,-3 -8,-7 0,-5 4,-8 8,-8l319 0c5,0 8,3 8,8 0,4 -3,7 -8,7z"/>
  <path class="fil0" d="M47 244c-5,0 -8,-3 -8,-7l0 -163 15 21 0 142c0,4 -3,7 -7,7z"/>
  <path class="fil0" d="M47 289c-17,0 -30,-13 -30,-30 0,-16 13,-30 30,-30 16,0 29,14 29,30 0,17 -13,30 -29,30z"/>
 </g>
</svg>
