<?xml version="1.0" encoding="UTF-8"?>
<!DOCTYPE svg PUBLIC "-//W3C//DTD SVG 1.1//EN" "http://www.w3.org/Graphics/SVG/1.1/DTD/svg11.dtd">
<!-- Creator: CorelDRAW -->
<svg xmlns="http://www.w3.org/2000/svg" xml:space="preserve" width="1.70666in" height="1.70666in" version="1.1" style="shape-rendering:geometricPrecision; text-rendering:geometricPrecision; image-rendering:optimizeQuality; fill-rule:evenodd; clip-rule:evenodd"
viewBox="0 0 1707 1707"
 xmlns:xlink="http://www.w3.org/1999/xlink">
 <defs>
  <style type="text/css">
   <![CDATA[
    .fil0 {fill:#000002}
   ]]>
  </style>
 </defs>
 <g id="Layer_x0020_1">
  <metadata id="CorelCorpID_0Corel-Layer"/>
  <path class="fil0" d="M700 1431l0 -257 121 0c7,0 13,-6 13,-13l0 -222c0,-7 -6,-13 -13,-13l-121 0 0 -234c0,-13 10,-23 22,-23l262 0c13,0 23,10 23,23l0 739 -307 0zm0 -283l0 -196 108 0 0 196 -108 0z"/>
  <path class="fil0" d="M1162 1611l-618 0c-12,0 -23,-10 -23,-23l0 -107c0,-13 11,-23 23,-23l618 0c13,0 23,10 23,23l0 107c0,13 -10,23 -23,23z"/>
  <path class="fil0" d="M776 642l0 -524c0,-12 10,-22 22,-22l110 0c13,0 23,10 23,22l0 524 -155 0z"/>
  <path class="fil0" d="M1684 332l-199 0c-47,0 -85,-38 -85,-86l0 -63c0,-12 10,-23 22,-23l199 0c47,0 86,39 86,86l0 63c0,13 -11,23 -23,23z"/>
  <path class="fil0" d="M908 451c-2,0 -4,-1 -6,-1 -12,-3 -19,-16 -16,-28 64,-239 348,-261 351,-261 0,0 1,-1 1,-1l184 0c13,0 23,11 23,23 0,13 -10,23 -23,23l-183 0c-14,1 -255,26 -309,228 -2,10 -12,17 -22,17z"/>
  <path class="fil0" d="M798 451c-10,0 -19,-7 -22,-17 -54,-203 -294,-227 -309,-228l-183 0c-12,0 -22,-10 -22,-23 0,-12 10,-23 22,-23l184 0c1,0 1,0 2,1 3,0 286,22 350,261 4,12 -4,25 -16,28 -2,0 -4,1 -6,1z"/>
  <path class="fil0" d="M221 332l-198 0c-13,0 -23,-10 -23,-23l0 -63c0,-47 39,-86 86,-86l198 0c13,0 23,11 23,23l0 63c0,48 -38,86 -86,86z"/>
  <path class="fil0" d="M1423 507c-4,0 -8,-1 -11,-3 -11,-7 -15,-21 -8,-31l57 -101c7,-10 20,-14 31,-8 11,6 15,20 9,31l-58 100c-4,8 -12,12 -20,12z"/>
  <path class="fil0" d="M1553 522c-12,0 -23,-10 -23,-23l0 -115c0,-13 11,-23 23,-23 13,0 23,10 23,23l0 115c0,13 -10,23 -23,23z"/>
  <path class="fil0" d="M1683 507c-8,0 -15,-4 -20,-12l-57 -100c-7,-11 -3,-25 8,-31 11,-6 25,-2 31,8l58 101c6,10 2,24 -9,31 -3,2 -7,3 -11,3z"/>
  <path class="fil0" d="M283 507c-7,0 -15,-4 -19,-12l-58 -100c-6,-11 -3,-25 8,-31 11,-6 25,-2 31,8l58 101c6,10 3,24 -8,31 -4,2 -8,3 -12,3z"/>
  <path class="fil0" d="M154 522c-13,0 -23,-10 -23,-23l0 -115c0,-13 10,-23 23,-23 12,0 22,10 22,23l0 115c0,13 -10,23 -22,23z"/>
  <path class="fil0" d="M24 507c-4,0 -8,-1 -12,-3 -11,-7 -14,-21 -8,-31l58 -101c6,-10 20,-14 31,-8 11,6 14,20 8,31l-58 100c-4,8 -12,12 -19,12z"/>
 </g>
</svg>
