<?xml version="1.0" encoding="UTF-8" standalone="no"?> <svg xmlns="http://www.w3.org/2000/svg" viewBox="0 0 64 64"><g id="_27-Faucet" data-name="27-Faucet"><path d="M62,35v4a.99974.99974,0,0,1-1,1H47a.99974.99974,0,0,1-1-1V35a.99974.99974,0,0,1,1-1H61A.99974.99974,0,0,1,62,35ZM40,2H20a.99974.99974,0,0,0-1,1V7a.99974.99974,0,0,0,1,1H40a.99974.99974,0,0,0,1-1V3A.99974.99974,0,0,0,40,2ZM27,10v2h6V10Zm13,4H20a.99974.99974,0,0,0-1,1V29a.99974.99974,0,0,0,1,1H40a.99974.99974,0,0,0,1-1V15A.99974.99974,0,0,0,40,14ZM10,28h7V16H10Zm38,2v2H60V29A13.01243,13.01243,0,0,0,47,16H43V28h3A2.00587,2.00587,0,0,1,48,30Zm5.17432,12.43555C52.54248,43.36133,47,51.57617,47,55.06348a7.00029,7.00029,0,0,0,14,0c0-3.48731-5.54248-11.70215-6.17432-12.62793A1.0384,1.0384,0,0,0,53.17432,42.43555ZM7,10H3a.99974.99974,0,0,0-1,1V33a.99974.99974,0,0,0,1,1H7a.99974.99974,0,0,0,1-1V11A.99974.99974,0,0,0,7,10Z"/></g></svg>