<svg xmlns="http://www.w3.org/2000/svg" version="1.1" xmlns:xlink="http://www.w3.org/1999/xlink" xmlns:svgjs="http://svgjs.dev/svgjs" width="1000" height="999" viewBox="0 0 1000 999"><g transform="matrix(1,0,0,1,-0.215743440233382,-0.21552769679306039)"><svg viewBox="0 0 343 343" data-background-color="#8abe53" preserveAspectRatio="xMidYMid meet" height="999" width="1000" xmlns="http://www.w3.org/2000/svg" xmlns:xlink="http://www.w3.org/1999/xlink"><g id="tight-bounds" transform="matrix(1,0,0,1,0.0740000000000407,0.07400000000001228)"><svg viewBox="0 0 342.85155851775386 342.85155851775386" height="342.85155851775386" width="342.85155851775386"><g><svg></svg></g><g><svg viewBox="0 0 342.85155851775386 342.85155851775386" height="342.85155851775386" width="342.85155851775386"><g><path d="M0 171.426c0-94.676 76.75-171.426 171.426-171.426 94.676 0 171.426 76.75 171.426 171.426 0 94.676-76.75 171.426-171.426 171.426-94.676 0-171.426-76.75-171.426-171.426zM171.426 340.696c93.485 0 169.27-75.785 169.27-169.27 0-93.485-75.785-169.27-169.27-169.271-93.485 0-169.27 75.785-169.271 169.271 0 93.485 75.785 169.27 169.271 169.27z" data-fill-palette-color="tertiary" fill="#4d7e3e" stroke="transparent"></path><ellipse rx="164.56874808852186" ry="164.56874808852186" cx="171.42577925887693" cy="171.42577925887693" fill="#4d7e3e" stroke="transparent" stroke-width="0" fill-opacity="1" data-fill-palette-color="tertiary"></ellipse></g><g transform="matrix(1,0,0,1,64.84655864529837,140.1392602426716)"><svg viewBox="0 0 213.1584412271571 62.573038032410615" height="62.573038032410615" width="213.1584412271571"><g><svg viewBox="0 0 213.1584412271571 62.573038032410615" height="62.573038032410615" width="213.1584412271571"><g><svg viewBox="0 0 213.1584412271571 62.573038032410615" height="62.573038032410615" width="213.1584412271571"><g transform="matrix(1,0,0,1,0,38.67264780981562)"><svg viewBox="0 0 213.1584412271571 23.900390222594993" height="23.900390222594993" width="213.1584412271571"><g id="textblocktransform"><svg viewBox="0 0 213.1584412271571 23.900390222594993" height="23.900390222594993" width="213.1584412271571" id="textblock"><g><svg viewBox="0 0 213.1584412271571 23.900390222594993" height="23.900390222594993" width="213.1584412271571"><g transform="matrix(1,0,0,1,0,0)"><svg width="213.1584412271571" viewBox="3.5999999046325684 -33.75 399.9599914550781 44.849998474121094" height="23.900390222594993" data-palette-color="#8abe53"><path d="M25.65-17.9Q25.6-18.7 25.6-20.3L25.6-20.3 25.6-22.2Q25.6-24.1 25.5-25.05L25.5-25.05Q25.4-25.85 25.4-29.2L25.4-29.2Q25.4-30.4 26.13-31.08 26.85-31.75 28.1-31.75L28.1-31.75Q29.7-31.75 30.25-31.05 30.8-30.35 30.8-28.75L30.8-28.75 30.8-26.85 30.75-21.35Q30.7-19.75 30.7-16.55L30.7-16.55 30.75-12.45Q30.8-11.5 30.8-9.8L30.8-9.8Q30.8-8.45 30.9-5.95L30.9-5.95Q31-3.65 31-2.5L31-2.5Q31-1.55 30.48-0.75 29.95 0.05 29.05 0.05L29.05 0.05Q25.55 0.05 25.55-2.3L25.55-2.3Q25.55-3.6 25.65-5.2L25.65-5.2Q25.75-6.35 25.75-8.7L25.75-8.7Q25.75-10.35 25.65-13.45L25.65-13.45Q23.3-13.25 17.55-13.25L17.55-13.25Q13.95-13.25 11.95-13.28 9.95-13.3 9.05-13.5L9.05-13.5 9-7.75Q9-7.2 9.25-4.8L9.25-4.8Q9.5-3.2 9.5-2L9.5-2Q9.5-1.25 8.63-0.58 7.75 0.1 7 0.1L7 0.1Q5.2 0.1 4.55-0.78 3.9-1.65 3.9-3.45L3.9-3.45 3.85-7.4Q3.8-8.1 3.8-9.35L3.8-9.35Q3.8-11.2 3.7-14.4L3.7-14.4Q3.6-17.3 3.6-18.6L3.6-18.6Q3.6-20.55 3.7-24.05L3.7-24.05Q3.8-27.35 3.8-28.95L3.8-28.95Q3.8-30.55 4.6-31.1 5.4-31.65 6.4-31.65L6.4-31.65Q9.2-31.65 9.2-29.8L9.2-29.8Q9.2-26.5 9.05-23.5L9.05-23.5Q8.95-19.7 8.95-17.95L8.95-17.95Q10.4-17.6 12-17.5 13.6-17.4 16.5-17.4L16.5-17.4Q22.4-17.4 25.65-17.9L25.65-17.9ZM60-2.4Q60-1.3 58.82-0.55 57.65 0.2 56.65 0.2L56.65 0.2Q54.75 0.2 53.62-0.28 52.5-0.75 51.55-2.05L51.55-2.05Q50.25-0.9 48-0.33 45.75 0.25 43.85 0.25L43.85 0.25Q40.75 0.25 38.75-1.43 36.75-3.1 36.75-6.35L36.75-6.35Q36.75-7.75 37.5-8.93 38.25-10.1 39.55-11L39.55-11Q41-11.95 42.85-12.48 44.7-13 46.7-13L46.7-13Q47.75-13 49.2-12.6 50.65-12.2 51.45-11.75L51.45-11.75 51.45-12.55Q51.45-15.25 50.15-16.28 48.85-17.3 45.95-17.3L45.95-17.3Q45.1-17.3 44.27-16.95 43.45-16.6 42.4-16L42.4-16Q41-15.25 39.75-15.25L39.75-15.25Q39.3-15.25 38.9-15.88 38.5-16.5 38.5-17L38.5-17Q38.5-18.45 39.87-19.5 41.25-20.55 43.15-21.08 45.05-21.6 46.55-21.6L46.55-21.6Q48.05-21.6 50-21.03 51.95-20.45 53.2-19.45L53.2-19.45Q54.7-18.15 55.52-16.43 56.35-14.7 56.35-12.65L56.35-12.65Q56.35-12 56.25-10.7L56.25-10.7Q56.15-9.3 56.15-8.3L56.15-8.3Q56.15-7.85 56.05-6.95L56.05-6.95Q55.95-5.85 55.95-5.2L55.95-5.2Q55.95-4.6 56.4-4.17 56.85-3.75 57.45-3.75L57.45-3.75 58.85-3.8Q59.4-3.8 59.7-3.4 60-3 60-2.4L60-2.4ZM43.9-3.7Q46.05-3.7 47.5-4.15 48.95-4.6 51-5.8L51-5.8Q51.2-6.65 51.25-8.05L51.25-8.05Q48.5-9.35 46.7-9.35L46.7-9.35Q44.65-9.35 43.05-8.6 41.45-7.85 41.45-5.95L41.45-5.95Q41.45-5 42.25-4.35 43.05-3.7 43.9-3.7L43.9-3.7ZM94.85-1.75Q94.1-3.15 93.9-4.88 93.7-6.6 93.7-9.65L93.7-9.65Q93.7-12.55 92.9-14.7 92.1-16.85 89.6-16.85L89.6-16.85Q88.65-16.85 87.72-16.28 86.8-15.7 86.35-14.85L86.35-14.85Q85.65-13.5 85.4-11.93 85.15-10.35 85.15-8.3L85.15-8.3Q85.15-7 85.3-5.65L85.3-5.65Q85.3-5.25 85.37-4.38 85.45-3.5 85.45-2.8L85.45-2.8Q85.45 0.2 83.35 0.2L83.35 0.2Q80.6 0.2 80.45-2.7L80.45-2.7Q80.45-4.75 80.5-4.9L80.5-4.9 80.5-7.05Q80.5-8.85 80.35-10.55 80.2-12.25 80-13.1L80-13.1Q79.55-14.75 78.82-15.65 78.1-16.55 76.55-16.55L76.55-16.55Q74.35-16.55 73-14.65L73-14.65Q72.05-13.15 71.75-11L71.75-11Q71.45-8.25 71.32-6.68 71.2-5.1 71.2-3.05L71.2-3.05Q71.2-1.6 70.72-0.7 70.25 0.2 68.95 0.2L68.95 0.2Q68 0.2 66.97-0.33 65.95-0.85 65.95-1.75L65.95-1.75Q65.95-2.7 66.15-3.65L66.15-3.65Q66.6-6.5 66.6-13.85L66.6-13.85Q66.6-15.05 66.02-16.18 65.45-17.3 64.65-17.3L64.65-17.3Q64.45-17.3 63.92-17.1 63.4-16.9 63.15-16.9L63.15-16.9Q62.5-16.9 61.97-17.5 61.45-18.1 61.45-18.5L61.45-18.5Q61.45-19.75 62.67-20.63 63.9-21.5 65.25-21.5L65.25-21.5Q67.1-21.5 68.4-20.35 69.7-19.2 70.4-17.15L70.4-17.15Q71.55-19.15 73.5-20.38 75.45-21.6 77.85-21.6L77.85-21.6Q79.35-21.6 80.27-21.23 81.2-20.85 81.8-20.18 82.4-19.5 83.35-18.15L83.35-18.15Q84.6-19.75 86.57-20.65 88.55-21.55 90.65-21.55L90.65-21.55Q93.15-21.55 95.15-19.53 97.15-17.5 97.85-14.85L97.85-14.85Q98.2-13.5 98.2-9.65L98.2-9.65 98.4-6.75Q98.65-4.15 100.1-3.6L100.1-3.6Q101.8-3.1 101.8-2.55L101.8-2.55Q101.8-1.35 101.2-0.8L101.2-0.8Q100.75-0.5 99.95-0.15 99.15 0.2 98.7 0.2L98.7 0.2Q96 0.2 94.85-1.75L94.85-1.75ZM106.49-17.4Q106.04-17.4 105.64-17.32 105.24-17.25 104.84-17.25L104.84-17.25Q104.29-17.25 103.82-17.75 103.34-18.25 103.34-18.65L103.34-18.65Q103.34-19.95 104.64-20.68 105.94-21.4 107.29-21.4L107.29-21.4Q108.44-21.4 109.67-20.63 110.89-19.85 111.49-18.65L111.49-18.65Q112.79-20.2 114.69-20.9 116.59-21.6 118.64-21.6L118.64-21.6Q120.94-21.6 122.92-20.15 124.89-18.7 126.04-16.48 127.19-14.25 127.19-12.05L127.19-12.05Q127.19-9.9 126.74-8.22 126.29-6.55 125.14-4.85L125.14-4.85Q123.84-3.05 121.67-1.9 119.49-0.75 116.49-0.75L116.49-0.75Q115.69-0.75 114.54-1.18 113.39-1.6 112.64-2.1L112.64-2.1Q112.29 1.3 112.29 3.8L112.29 3.8Q112.29 5.3 112.44 6.65L112.44 6.65Q112.54 8.25 112.54 8.95L112.54 8.95Q112.54 10.05 111.79 10.58 111.04 11.1 110.14 11.1L110.14 11.1Q108.34 11.1 107.77 10.13 107.19 9.15 107.19 7.35L107.19 7.35Q107.39 3.05 107.69-0.6L107.69-0.6Q107.99-5.1 107.99-14.5L107.99-14.5Q107.99-15.4 107.64-16.4 107.29-17.4 106.49-17.4L106.49-17.4ZM112.84-7.05Q113.09-6.1 114.27-5.48 115.44-4.85 116.39-4.85L116.39-4.85Q119.24-4.85 120.64-6.4L120.64-6.4Q121.69-7.5 122.02-8.55 122.34-9.6 122.34-11.9L122.34-11.9Q122.34-13.7 121.64-14.93 120.94-16.15 119.94-16.73 118.94-17.3 118.04-17.3L118.04-17.3Q115.99-17.3 114.72-16.07 113.44-14.85 113.09-12.75L113.09-12.75Q112.84-11.1 112.84-7.05L112.84-7.05ZM145.79-11.25Q146.19-11 147.37-10.33 148.54-9.65 148.94-8.75 149.34-7.85 149.34-6.25L149.34-6.25Q149.34-4.45 148.29-3.08 147.24-1.7 145.59-0.95L145.59-0.95Q144.39-0.4 142.67-0.1 140.94 0.2 139.94 0.2L139.94 0.2Q138.94 0.2 137.37-0.1 135.79-0.4 135.19-0.65L135.19-0.65Q133.64-1.55 132.52-2.85 131.39-4.15 131.39-5.5L131.39-5.5Q131.39-6.5 132.04-7.08 132.69-7.65 133.74-7.65L133.74-7.65Q134.24-7.65 134.79-7.28 135.34-6.9 135.54-6.5L135.54-6.5Q136.09-5.2 137.39-4.55 138.69-3.9 140.04-3.9L140.04-3.9Q141.79-3.9 143.29-4.48 144.79-5.05 144.79-6.05L144.79-6.05Q144.79-6.5 144.57-6.78 144.34-7.05 143.94-7.35L143.94-7.35Q143.24-7.85 141.84-8.18 140.44-8.5 140.04-8.6L140.04-8.6Q137.99-9.05 136.04-9.95L136.04-9.95Q134.09-10.9 132.94-12.2 131.79-13.5 131.79-15.55L131.79-15.55Q131.79-16.9 132.79-18.38 133.79-19.85 135.04-20.45L135.04-20.45Q135.94-20.8 138.07-21.2 140.19-21.6 140.94-21.6L140.94-21.6Q142.09-21.6 143.44-21.38 144.79-21.15 145.49-20.65L145.49-20.65Q146.84-19.85 147.69-18.98 148.54-18.1 148.54-17L148.54-17Q148.54-16.45 148.29-15.83 148.04-15.2 147.69-15.05L147.69-15.05Q146.94-14.7 145.94-14.7L145.94-14.7Q145.49-14.7 145.22-14.95 144.94-15.2 144.49-15.75L144.49-15.75Q143.94-16.6 143.44-16.75L143.44-16.75Q142.84-16.9 141.69-17.13 140.54-17.35 140.14-17.35L140.14-17.35Q138.99-17.35 137.77-16.7 136.54-16.05 136.54-15.2L136.54-15.2Q136.54-14.75 136.92-14.5 137.29-14.25 137.72-14.05 138.14-13.85 138.29-13.8L138.29-13.8Q139.34-13.3 140.62-12.95 141.89-12.6 142.19-12.5L142.19-12.5Q144.89-11.85 145.79-11.25L145.79-11.25ZM160.09-31.7Q160.09-30.4 160.04-28.68 159.99-26.95 159.94-26.05L159.94-26.05Q159.79-23.5 159.79-20.95L159.79-20.95Q159.79-19.05 159.94-17L159.94-17Q161.49-19.25 163.29-20.3 165.09-21.35 167.64-21.35L167.64-21.35Q169.49-21.35 171.09-19.7 172.69-18.05 173.14-15.85L173.14-15.85Q173.29-13.9 173.29-11.1L173.29-11.1Q173.29-9.3 173.49-6.4L173.49-6.4Q173.59-5.3 174.06-4.35 174.54-3.4 175.44-3.4L175.44-3.4Q175.89-3.4 176.16-3.45 176.44-3.5 176.69-3.5L176.69-3.5Q177.39-3.5 177.66-3.15 177.94-2.8 177.94-2.15L177.94-2.15Q177.94-0.95 176.74-0.35 175.54 0.25 174.54 0.25L174.54 0.25Q170.94 0.25 169.59-2.75L169.59-2.75Q168.84-4.45 168.64-7.18 168.44-9.9 168.44-13.55L168.44-13.55Q168.44-17.15 165.99-17.15L165.99-17.15Q164.64-17.15 163.26-15.73 161.89-14.3 160.99-11.98 160.09-9.65 160.09-7.15L160.09-7.15 160.14-1.95Q160.14-0.85 159.29-0.33 158.44 0.2 157.69 0.2L157.69 0.2Q156.59 0.2 155.69-0.48 154.79-1.15 154.79-2L154.79-2Q155.14-5.75 155.14-14.55L155.14-14.55Q155.14-16.15 154.89-26.4L154.89-26.4 154.74-31Q154.74-32.1 155.74-32.93 156.74-33.75 157.99-33.75L157.99-33.75Q159.09-33.75 159.59-33.25 160.09-32.75 160.09-31.7L160.09-31.7ZM183.49-32.1Q185.24-31.95 186.54-31.18 187.84-30.4 187.84-28.85L187.84-28.85Q187.84-27.7 186.76-27.03 185.69-26.35 184.19-26.35L184.19-26.35Q182.74-26.35 182.19-27.1 181.64-27.85 181.64-28.65L181.64-28.65Q181.64-30.15 181.96-31.15 182.29-32.15 183.49-32.1L183.49-32.1ZM187.49-18.95L187.49-9.95 187.49-8.5Q187.49-6.55 187.61-4.83 187.74-3.1 187.94-1.35L187.94-1.35Q187.89-0.85 187.19-0.33 186.49 0.2 185.94 0.2L185.94 0.2Q184.99 0.2 184.01-0.18 183.04-0.55 182.84-1.1L182.84-1.1Q182.54-2.7 182.54-3.95L182.54-3.95Q182.54-8.05 182.29-13.15L182.29-13.15Q182.09-17.65 182.09-19.45L182.09-19.45Q182.09-20.35 182.99-21 183.89-21.65 184.89-21.65L184.89-21.65Q186.34-21.65 186.91-21 187.49-20.35 187.49-18.95L187.49-18.95ZM201.13-2Q201.13-1.15 200.48-0.5 199.83 0.15 198.88 0.15L198.88 0.15Q197.38 0.15 196.68-0.43 195.98-1 195.98-2.55L195.98-2.55Q195.98-4.4 195.88-7.4L195.88-7.4Q195.78-9.9 195.78-11.6L195.78-11.6Q195.78-12.4 195.88-13.7L195.88-13.7Q195.98-14.9 195.98-15.5L195.98-15.5Q195.83-16.45 195.23-17.07 194.63-17.7 193.68-17.7L193.68-17.7Q193.23-17.7 192.93-18.13 192.63-18.55 192.63-19L192.63-19Q192.63-20.15 193.56-20.75 194.48-21.35 195.78-21.35L195.78-21.35Q198.48-21.35 199.53-18.15L199.53-18.15Q200.83-19.65 202.51-20.58 204.18-21.5 205.73-21.5L205.73-21.5Q207.58-21.5 209.11-20.5 210.63-19.5 210.63-17.8L210.63-17.8Q210.63-16.85 209.81-15.85 208.98-14.85 208.13-14.85L208.13-14.85Q207.68-14.85 207.36-15.08 207.03-15.3 206.58-15.75L206.58-15.75Q206.08-16.25 205.73-16.48 205.38-16.7 204.93-16.7L204.93-16.7Q204.13-16.7 203.43-16.45 202.73-16.2 202.48-15.85L202.48-15.85Q201.68-14.6 201.31-13.6 200.93-12.6 200.93-11.45L200.93-11.45Q200.93-10.6 200.88-10.1L200.88-10.1 200.83-7.25Q200.83-6.6 200.88-5.8 200.93-5 200.98-4.6L200.98-4.6Q201.13-3.25 201.13-2L201.13-2ZM213.18-10.6Q213.18-12.5 213.88-14.43 214.58-16.35 215.73-17.95L215.73-17.95Q216.88-19.55 219.38-20.58 221.88-21.6 223.83-21.6L223.83-21.6Q225.83-21.6 227.91-21.05 229.98-20.5 230.78-19.35L230.78-19.35Q232.63-16.75 232.63-14.25L232.63-14.25Q232.63-12.9 232.06-11.95 231.48-11 230.43-9.9L230.43-9.9Q229.58-9 227.76-8.7 225.93-8.4 224.13-8.4L224.13-8.4Q222.98-8.4 221.33-8.63 219.68-8.85 218.13-9.2L218.13-9.2Q218.23-8.2 218.63-7.25 219.03-6.3 219.58-5.8L219.58-5.8Q220.58-4.85 221.66-4.6 222.73-4.35 224.43-4.35L224.43-4.35Q226.23-4.35 227.78-4.95L227.78-4.95Q229.03-5.4 229.83-5.4L229.83-5.4Q230.78-5.4 231.28-4.83 231.78-4.25 231.78-3.35L231.78-3.35Q231.78-2.1 230.33-1.3 228.88-0.5 227.01-0.13 225.13 0.25 223.98 0.25L223.98 0.25Q221.63 0.25 219.43-0.6 217.23-1.45 215.78-3L215.78-3Q214.58-4.4 213.88-6.38 213.18-8.35 213.18-10.6L213.18-10.6ZM224.08-17.35Q222.98-17.35 221.88-16.93 220.78-16.5 220.08-15.75L220.08-15.75Q219.18-14.8 218.86-14.23 218.53-13.65 218.43-12.65L218.43-12.65Q219.68-12.25 223.63-12.25L223.63-12.25Q225.78-12.25 226.96-12.9 228.13-13.55 228.13-14.6L228.13-14.6Q228.13-15.65 226.83-16.5 225.53-17.35 224.08-17.35L224.08-17.35ZM270.13-6.8Q271.08-6.8 271.55-6.08 272.03-5.35 272.03-4.5L272.03-4.5Q272.03-3.45 271.7-3.03 271.38-2.6 270.48-2.15L270.48-2.15Q268.38-1.15 265.28-0.55 262.18 0.05 258.63 0.05L258.63 0.05Q254.18 0.05 252.1-1.45 250.03-2.95 249.55-5.08 249.08-7.2 249.08-10.65L249.08-10.65Q249.08-14.35 249.38-17.93 249.68-21.5 250.43-27.05L250.43-27.05Q250.78-29.45 252.33-30.53 253.88-31.6 255.73-31.6L255.73-31.6Q257.28-31.6 260.78-31.7L260.78-31.7 265.13-31.75Q267.83-31.75 269.03-31.6L269.03-31.6Q270.53-31.3 271.25-30.93 271.98-30.55 271.98-29.65L271.98-29.65Q271.98-28.65 271.3-27.7 270.63-26.75 269.28-26.75L269.28-26.75Q267.73-26.75 264.83-26.95L264.83-26.95Q261.93-27.15 260.48-27.15L260.48-27.15Q259.23-27.15 258.03-27L258.03-27Q256.63-26.9 256.03-26.65 255.43-26.4 255.33-25.8L255.33-25.8Q254.63-20.65 254.63-18.2L254.63-18.2Q255.78-18.05 256.88-18.05L256.88-18.05Q258.28-18.05 259.88-18.2 261.48-18.35 261.93-18.4L261.93-18.4Q264.58-18.65 266.48-18.65L266.48-18.65Q267.58-18.65 268.15-18.25 268.73-17.85 268.73-17.15L268.73-17.15Q268.73-16.05 268.15-15.45 267.58-14.85 266.13-14.55L266.13-14.55Q264.38-14.2 261.8-14 259.23-13.8 256.78-13.8L256.78-13.8Q255.93-13.8 254.43-13.9L254.43-13.9Q254.28-10.85 254.28-8.25L254.28-8.25Q254.28-4.7 258.98-4.7L258.98-4.7Q261.48-4.7 263.13-5.05 264.78-5.4 266.93-6.05L266.93-6.05Q268.93-6.8 270.13-6.8L270.13-6.8ZM290.27-11.25Q290.67-11 291.85-10.33 293.02-9.65 293.42-8.75 293.82-7.85 293.82-6.25L293.82-6.25Q293.82-4.45 292.77-3.08 291.72-1.7 290.07-0.95L290.07-0.95Q288.87-0.4 287.15-0.1 285.42 0.2 284.42 0.2L284.42 0.2Q283.42 0.2 281.85-0.1 280.27-0.4 279.67-0.65L279.67-0.65Q278.12-1.55 277-2.85 275.87-4.15 275.87-5.5L275.87-5.5Q275.87-6.5 276.52-7.08 277.17-7.65 278.22-7.65L278.22-7.65Q278.72-7.65 279.27-7.28 279.82-6.9 280.02-6.5L280.02-6.5Q280.57-5.2 281.87-4.55 283.17-3.9 284.52-3.9L284.52-3.9Q286.27-3.9 287.77-4.48 289.27-5.05 289.27-6.05L289.27-6.05Q289.27-6.5 289.05-6.78 288.82-7.05 288.42-7.35L288.42-7.35Q287.72-7.85 286.32-8.18 284.92-8.5 284.52-8.6L284.52-8.6Q282.47-9.05 280.52-9.95L280.52-9.95Q278.57-10.9 277.42-12.2 276.27-13.5 276.27-15.55L276.27-15.55Q276.27-16.9 277.27-18.38 278.27-19.85 279.52-20.45L279.52-20.45Q280.42-20.8 282.55-21.2 284.67-21.6 285.42-21.6L285.42-21.6Q286.57-21.6 287.92-21.38 289.27-21.15 289.97-20.65L289.97-20.65Q291.32-19.85 292.17-18.98 293.02-18.1 293.02-17L293.02-17Q293.02-16.45 292.77-15.83 292.52-15.2 292.17-15.05L292.17-15.05Q291.42-14.7 290.42-14.7L290.42-14.7Q289.97-14.7 289.7-14.95 289.42-15.2 288.97-15.75L288.97-15.75Q288.42-16.6 287.92-16.75L287.92-16.75Q287.32-16.9 286.17-17.13 285.02-17.35 284.62-17.35L284.62-17.35Q283.47-17.35 282.25-16.7 281.02-16.05 281.02-15.2L281.02-15.2Q281.02-14.75 281.4-14.5 281.77-14.25 282.2-14.05 282.62-13.85 282.77-13.8L282.77-13.8Q283.82-13.3 285.1-12.95 286.37-12.6 286.67-12.5L286.67-12.5Q289.37-11.85 290.27-11.25L290.27-11.25ZM300.92-17.1L298.52-17.3Q297.82-17.4 297.4-17.9 296.97-18.4 296.97-19.1L296.97-19.1Q296.97-19.45 297.15-19.85 297.32-20.25 297.67-20.55L297.67-20.55Q298.32-21.2 301.17-21.2L301.17-21.2Q301.57-23.15 301.57-25.15L301.57-25.15Q301.57-25.9 301.52-26.45 301.47-27 301.47-27.3L301.47-27.3Q301.47-28.4 302.3-28.95 303.12-29.5 304.17-29.5L304.17-29.5Q305.47-29.5 305.95-28.85 306.42-28.2 306.42-26.45L306.42-26.45Q306.42-23.85 305.97-21.35L305.97-21.35Q306.77-21.35 308.17-21.45L308.17-21.45Q310.07-21.55 310.92-21.55L310.92-21.55Q311.77-21.55 312.4-21.13 313.02-20.7 313.02-19.95L313.02-19.95Q313.02-18 311.27-17.65L311.27-17.65Q309.42-17.2 305.52-17.1L305.52-17.1Q305.37-15.15 305.37-12.85L305.37-12.85Q305.37-9.25 305.82-6.95L305.82-6.95Q306.12-5.35 306.85-4.63 307.57-3.9 309.02-3.9L309.02-3.9Q309.87-3.9 310.77-4.35L310.77-4.35Q311.37-4.7 311.87-4.7L311.87-4.7Q312.57-4.7 312.9-4.25 313.22-3.8 313.22-3.05L313.22-3.05Q313.22-1.65 311.72-0.73 310.22 0.2 307.87 0.2L307.87 0.2Q306.42 0.2 304.95-0.5 303.47-1.2 302.47-2.25L302.47-2.25Q302.32-2.4 301.92-3.4 301.52-4.4 301.22-5.55L301.22-5.55Q300.72-7.9 300.72-12.15L300.72-12.15Q300.72-14 300.92-17.1L300.92-17.1ZM340.07-2.4Q340.07-1.3 338.89-0.55 337.72 0.2 336.72 0.2L336.72 0.2Q334.82 0.2 333.69-0.28 332.57-0.75 331.62-2.05L331.62-2.05Q330.32-0.9 328.07-0.33 325.82 0.25 323.92 0.25L323.92 0.25Q320.82 0.25 318.82-1.43 316.82-3.1 316.82-6.35L316.82-6.35Q316.82-7.75 317.57-8.93 318.32-10.1 319.62-11L319.62-11Q321.07-11.95 322.92-12.48 324.77-13 326.77-13L326.77-13Q327.82-13 329.27-12.6 330.72-12.2 331.52-11.75L331.52-11.75 331.52-12.55Q331.52-15.25 330.22-16.28 328.92-17.3 326.02-17.3L326.02-17.3Q325.17-17.3 324.34-16.95 323.52-16.6 322.47-16L322.47-16Q321.07-15.25 319.82-15.25L319.82-15.25Q319.37-15.25 318.97-15.88 318.57-16.5 318.57-17L318.57-17Q318.57-18.45 319.94-19.5 321.32-20.55 323.22-21.08 325.12-21.6 326.62-21.6L326.62-21.6Q328.12-21.6 330.07-21.03 332.02-20.45 333.27-19.45L333.27-19.45Q334.77-18.15 335.59-16.43 336.42-14.7 336.42-12.65L336.42-12.65Q336.42-12 336.32-10.7L336.32-10.7Q336.22-9.3 336.22-8.3L336.22-8.3Q336.22-7.85 336.12-6.95L336.12-6.95Q336.02-5.85 336.02-5.2L336.02-5.2Q336.02-4.6 336.47-4.17 336.92-3.75 337.52-3.75L337.52-3.75 338.92-3.8Q339.47-3.8 339.77-3.4 340.07-3 340.07-2.4L340.07-2.4ZM323.97-3.7Q326.12-3.7 327.57-4.15 329.02-4.6 331.07-5.8L331.07-5.8Q331.27-6.65 331.32-8.05L331.32-8.05Q328.57-9.35 326.77-9.35L326.77-9.35Q324.72-9.35 323.12-8.6 321.52-7.85 321.52-5.95L321.52-5.95Q321.52-5 322.32-4.35 323.12-3.7 323.97-3.7L323.97-3.7ZM345.77-17.1L343.37-17.3Q342.67-17.4 342.24-17.9 341.82-18.4 341.82-19.1L341.82-19.1Q341.82-19.45 341.99-19.85 342.17-20.25 342.52-20.55L342.52-20.55Q343.17-21.2 346.02-21.2L346.02-21.2Q346.42-23.15 346.42-25.15L346.42-25.15Q346.42-25.9 346.37-26.45 346.32-27 346.32-27.3L346.32-27.3Q346.32-28.4 347.14-28.95 347.97-29.5 349.02-29.5L349.02-29.5Q350.32-29.5 350.79-28.85 351.27-28.2 351.27-26.45L351.27-26.45Q351.27-23.85 350.82-21.35L350.82-21.35Q351.62-21.35 353.02-21.45L353.02-21.45Q354.92-21.55 355.77-21.55L355.77-21.55Q356.62-21.55 357.24-21.13 357.87-20.7 357.87-19.95L357.87-19.95Q357.87-18 356.12-17.65L356.12-17.65Q354.27-17.2 350.37-17.1L350.37-17.1Q350.22-15.15 350.22-12.85L350.22-12.85Q350.22-9.25 350.67-6.95L350.67-6.95Q350.97-5.35 351.69-4.63 352.42-3.9 353.87-3.9L353.87-3.9Q354.72-3.9 355.62-4.35L355.62-4.35Q356.22-4.7 356.72-4.7L356.72-4.7Q357.42-4.7 357.74-4.25 358.07-3.8 358.07-3.05L358.07-3.05Q358.07-1.65 356.57-0.73 355.07 0.2 352.72 0.2L352.72 0.2Q351.27 0.2 349.79-0.5 348.32-1.2 347.32-2.25L347.32-2.25Q347.17-2.4 346.77-3.4 346.37-4.4 346.07-5.55L346.07-5.55Q345.57-7.9 345.57-12.15L345.57-12.15Q345.57-14 345.77-17.1L345.77-17.1ZM361.76-10.6Q361.76-12.5 362.46-14.43 363.16-16.35 364.31-17.95L364.31-17.95Q365.46-19.55 367.96-20.58 370.46-21.6 372.41-21.6L372.41-21.6Q374.41-21.6 376.49-21.05 378.56-20.5 379.36-19.35L379.36-19.35Q381.21-16.75 381.21-14.25L381.21-14.25Q381.21-12.9 380.64-11.95 380.06-11 379.01-9.9L379.01-9.9Q378.16-9 376.34-8.7 374.51-8.4 372.71-8.4L372.71-8.4Q371.56-8.4 369.91-8.63 368.26-8.85 366.71-9.2L366.71-9.2Q366.81-8.2 367.21-7.25 367.61-6.3 368.16-5.8L368.16-5.8Q369.16-4.85 370.24-4.6 371.31-4.35 373.01-4.35L373.01-4.35Q374.81-4.35 376.36-4.95L376.36-4.95Q377.61-5.4 378.41-5.4L378.41-5.4Q379.36-5.4 379.86-4.83 380.36-4.25 380.36-3.35L380.36-3.35Q380.36-2.1 378.91-1.3 377.46-0.5 375.59-0.13 373.71 0.25 372.56 0.25L372.56 0.25Q370.21 0.25 368.01-0.6 365.81-1.45 364.36-3L364.36-3Q363.16-4.4 362.46-6.38 361.76-8.35 361.76-10.6L361.76-10.6ZM372.66-17.35Q371.56-17.35 370.46-16.93 369.36-16.5 368.66-15.75L368.66-15.75Q367.76-14.8 367.44-14.23 367.11-13.65 367.01-12.65L367.01-12.65Q368.26-12.25 372.21-12.25L372.21-12.25Q374.36-12.25 375.54-12.9 376.71-13.55 376.71-14.6L376.71-14.6Q376.71-15.65 375.41-16.5 374.11-17.35 372.66-17.35L372.66-17.35ZM400.01-11.25Q400.41-11 401.59-10.33 402.76-9.65 403.16-8.75 403.56-7.85 403.56-6.25L403.56-6.25Q403.56-4.45 402.51-3.08 401.46-1.7 399.81-0.95L399.81-0.95Q398.61-0.4 396.89-0.1 395.16 0.2 394.16 0.2L394.16 0.2Q393.16 0.2 391.59-0.1 390.01-0.4 389.41-0.65L389.41-0.65Q387.86-1.55 386.74-2.85 385.61-4.15 385.61-5.5L385.61-5.5Q385.61-6.5 386.26-7.08 386.91-7.65 387.96-7.65L387.96-7.65Q388.46-7.65 389.01-7.28 389.56-6.9 389.76-6.5L389.76-6.5Q390.31-5.2 391.61-4.55 392.91-3.9 394.26-3.9L394.26-3.9Q396.01-3.9 397.51-4.48 399.01-5.05 399.01-6.05L399.01-6.05Q399.01-6.5 398.79-6.78 398.56-7.05 398.16-7.35L398.16-7.35Q397.46-7.85 396.06-8.18 394.66-8.5 394.26-8.6L394.26-8.6Q392.21-9.05 390.26-9.95L390.26-9.95Q388.31-10.9 387.16-12.2 386.01-13.5 386.01-15.55L386.01-15.55Q386.01-16.9 387.01-18.38 388.01-19.85 389.26-20.45L389.26-20.45Q390.16-20.8 392.29-21.2 394.41-21.6 395.16-21.6L395.16-21.6Q396.31-21.6 397.66-21.38 399.01-21.15 399.71-20.65L399.71-20.65Q401.06-19.85 401.91-18.98 402.76-18.1 402.76-17L402.76-17Q402.76-16.45 402.51-15.83 402.26-15.2 401.91-15.05L401.91-15.05Q401.16-14.7 400.16-14.7L400.16-14.7Q399.71-14.7 399.44-14.95 399.16-15.2 398.71-15.75L398.71-15.75Q398.16-16.6 397.66-16.75L397.66-16.75Q397.06-16.9 395.91-17.13 394.76-17.35 394.36-17.35L394.36-17.35Q393.21-17.35 391.99-16.7 390.76-16.05 390.76-15.2L390.76-15.2Q390.76-14.75 391.14-14.5 391.51-14.25 391.94-14.05 392.36-13.85 392.51-13.8L392.51-13.8Q393.56-13.3 394.84-12.95 396.11-12.6 396.41-12.5L396.41-12.5Q399.11-11.85 400.01-11.25L400.01-11.25Z" opacity="1" transform="matrix(1,0,0,1,0,0)" fill="#8abe53" class="wordmark-text-0" data-fill-palette-color="quaternary" id="text-0"></path></svg></g></svg></g></svg></g></svg></g><g transform="matrix(1,0,0,1,85.7347696156646,0)"><svg viewBox="0 0 41.68890199582791 33.03033928762628" height="33.03033928762628" width="41.68890199582791"><g><svg xmlns="http://www.w3.org/2000/svg" xmlns:xlink="http://www.w3.org/1999/xlink" version="1.1" x="0" y="0" viewBox="11.873929023742676 24.32900047302246 120.33366394042969 95.34100341796875" enable-background="new 0 0 144.083 144" xml:space="preserve" height="33.03033928762628" width="41.68890199582791" class="icon-icon-0" data-fill-palette-color="quaternary" id="icon-0"><path d="M132.122 84.01l-10-40.911c-0.328-1.343-1.531-2.288-2.914-2.288H50.292V27.329c0-1.657-1.343-3-3-3h-14c-1.657 0-3 1.343-3 3v13.482h-5.416c-1.382 0-2.586 0.945-2.914 2.288L11.96 84.009c-0.219 0.896-0.015 1.841 0.554 2.565s1.439 1.147 2.36 1.147h1.733v28.949c0 1.657 1.343 3 3 3h33.275 9.746 18.824H91.2h33.275c1.658 0 3-1.343 3-3V87.722h1.732c0.922 0 1.791-0.423 2.359-1.147C132.137 85.85 132.34 84.904 132.122 84.01zM63.879 86.603v27.068h-7.996V68.369l16.335-19L88.2 68.352v45.319h-7.996V86.603H63.879zM117.843 50.864H81.321l-3.412-4.053h38.943L117.843 50.864zM36.292 30.329h8v10.482h-8V30.329zM66.505 46.812l-3.484 4.053H26.24l0.991-4.053H66.505zM22.608 87.722h27.275v25.949h-7.638v-12.537c0-3.592-2.914-6.504-6.505-6.504-3.593 0-6.504 2.912-6.504 6.504v12.537h-6.629V87.722zM121.475 113.671h-7.264v-12.537c0-3.592-2.91-6.504-6.504-6.504-3.59 0-6.502 2.912-6.502 6.504v12.537H94.2V87.722h27.275V113.671z" fill="#8abe53" data-fill-palette-color="quaternary"></path></svg></g></svg></g><g></g></svg></g></svg></g></svg></g></svg></g><defs></defs></svg><rect width="342.85155851775386" height="342.85155851775386" fill="none" stroke="none" visibility="hidden"></rect></g></svg></g></svg>